<svg width="231" height="345" viewBox="0 0 231 345" fill="none" xmlns="http://www.w3.org/2000/svg">
<path d="M105.391 217.983C95.278 293.692 56.0729 353.401 124.44 343.495C167.593 337.192 135.522 292.515 121.669 229.62" fill="#AB5D26"/>
<path d="M83.6416 327.494C84.6113 340.516 94.4472 347.859 119.591 347.028C133.86 346.612 147.298 342.179 147.298 325.07C141.48 301.311 90.499 297.363 83.6416 327.494Z" fill="#FF8933"/>
<path d="M99.8499 243.335C37.7865 260.791 -25.9392 260.306 11.188 305.26C34.6002 333.591 79.0005 287.874 123.193 256.15" fill="#AB5D26"/>
<path d="M5.78573 271.25C-2.45706 278.592 -2.31853 288.913 11.1886 305.26C18.8772 314.542 28.7824 315.858 40.1422 312.394C53.0259 296.255 28.0897 264.531 5.78573 271.25Z" fill="#FF8933"/>
<path d="M131.228 243.335C193.291 260.791 257.086 260.306 219.89 305.26C196.477 333.591 152.077 287.874 107.885 256.15" fill="#AB5D26"/>
<path d="M225.363 271.25C233.605 278.592 233.398 288.913 219.891 305.26C212.202 314.542 202.366 315.858 190.937 312.394C178.053 296.255 202.989 264.531 225.363 271.25Z" fill="#FF8933"/>
<path d="M11.7432 279.908C22.3411 281.432 33.7702 290.714 32.8004 302.282C32.5234 305.191 37.095 305.191 37.3028 302.282C38.4803 288.844 25.3888 277.276 12.9208 275.544C10.0808 275.129 8.83399 279.493 11.7432 279.908Z" fill="#2C2353"/>
<path d="M13.9596 290.368C18.8776 291.615 22.4102 294.801 23.7956 299.719C24.5575 302.559 28.9213 301.312 28.1594 298.472C26.4277 292.1 21.579 287.597 15.2064 286.004C12.3665 285.242 11.1197 289.675 13.9596 290.368Z" fill="#2C2353"/>
<path d="M107.056 315.858C116.822 314.265 135.386 317.105 137.048 329.227C137.395 332.136 141.758 330.889 141.412 328.049C139.334 313.157 117.861 309.555 105.878 311.425C102.969 311.91 104.216 316.274 107.056 315.858Z" fill="#2C2353"/>
<path d="M111.903 325.486C116.89 325.209 124.579 326.317 126.102 331.997C126.864 334.837 131.228 333.59 130.466 330.75C128.388 322.992 119.037 320.499 111.903 320.914C108.993 321.122 108.993 325.624 111.903 325.486Z" fill="#2C2353"/>
<path d="M210.401 279.424C201.535 283.302 193.639 291.199 193.361 301.381C193.223 304.29 197.795 304.29 197.864 301.381C198.141 292.792 205.345 286.558 212.687 283.303C215.319 282.125 213.033 278.246 210.401 279.424Z" fill="#2C2353"/>
<path d="M213.657 288.29C207.977 290.23 204.998 294.178 203.405 299.858C202.643 302.698 207.007 303.875 207.769 301.035C208.947 296.948 210.678 294.109 214.834 292.654C217.605 291.684 216.428 287.32 213.657 288.29Z" fill="#2C2353"/>
<path d="M122.016 269.658C123.401 279.84 126.103 289.884 128.804 299.719C129.636 302.49 133.999 301.313 133.237 298.473C130.467 288.637 127.765 278.593 126.38 268.48C125.964 265.571 121.601 266.818 122.016 269.658Z" fill="#80461D"/>
<path d="M113.704 276.376C114.166 282.749 114.628 289.098 115.089 295.424C115.297 298.334 119.869 298.403 119.661 295.424C119.199 289.098 118.738 282.749 118.276 276.376C118.068 273.467 113.496 273.397 113.704 276.376Z" fill="#80461D"/>
<path d="M103.244 270.003C103.244 279.701 103.244 289.398 103.244 299.096C103.244 302.005 107.816 302.005 107.816 299.096C107.816 289.398 107.816 279.701 107.816 270.003C107.816 267.025 103.244 267.025 103.244 270.003Z" fill="#80461D"/>
<path d="M166.832 263.077C175.144 265.709 183.248 268.964 191.353 272.151C194.123 273.259 195.232 268.826 192.599 267.787C184.426 264.601 176.322 261.345 168.01 258.713C165.239 257.812 163.992 262.176 166.832 263.077Z" fill="#80461D"/>
<path d="M152.216 266.748C163.16 270.489 172.303 277.831 182.624 282.887C185.256 284.134 187.542 280.255 184.91 278.939C174.243 273.744 164.753 266.263 153.463 262.315C150.692 261.345 149.514 265.778 152.216 266.748Z" fill="#80461D"/>
<path d="M154.433 279.701C160.113 282.61 166.347 285.589 171.265 289.814C173.481 291.684 176.667 288.498 174.451 286.558C169.256 282.125 162.814 278.87 156.719 275.753C154.156 274.437 151.801 278.316 154.433 279.701Z" fill="#80461D"/>
<path d="M61.7528 259.128C53.6485 261.414 45.6135 264.116 37.6478 266.886C34.8771 267.856 36.0547 272.22 38.8254 271.25C46.7911 268.549 54.8261 265.847 62.9303 263.562C65.7703 262.73 64.5927 258.366 61.7528 259.128Z" fill="#80461D"/>
<path d="M67.9874 266.679C60.5066 270.558 52.333 273.398 44.4366 276.445C41.7352 277.484 42.9127 281.848 45.6834 280.809C53.9262 277.692 62.4461 274.644 70.3425 270.558C72.9054 269.242 70.6196 265.293 67.9874 266.679Z" fill="#80461D"/>
<path d="M82.1185 270.281C73.3908 274.298 65.4943 279.77 57.113 284.411C54.5501 285.797 56.836 289.745 59.3989 288.29C67.7802 283.649 75.6766 278.247 84.4043 274.229C87.1057 272.982 84.7506 269.103 82.1185 270.281Z" fill="#80461D"/>
<path d="M113.427 260.375C8.41801 270.142 -7.30562 159.661 58.3596 108.057C58.3596 122.811 74.0832 142.482 84.6118 120.386C89.8069 108.057 73.3906 95.1731 68.9575 81.0426C59.0523 50.0109 71.4511 19.6719 105.6 0C102.968 17.1782 95.0712 39.3437 100.335 56.522C105.6 73.7002 126.588 83.5362 131.852 100.714C147.576 81.0425 150.208 56.522 144.944 31.9322C186.989 61.4399 194.816 110.55 160.736 147.4C176.46 149.825 189.552 142.482 194.816 127.729C215.804 184.251 240.879 258.574 113.427 260.375Z" fill="#FFCA5C"/>
<path d="M104.768 104.455C103.798 118.1 106.846 132.369 97.9798 145.391C87.1741 161.115 63.9697 152.664 58.0819 139.019C48.3845 153.565 41.8042 183.558 50.324 207.247C60.7141 235.854 86.2737 241.811 114.535 242.712C136.839 242.712 164.061 238.14 175.767 218.122C184.494 204.476 186.434 179.956 179.646 165.41C179.646 165.41 156.303 180.094 151.454 164.44C147.021 150.24 168.009 126.689 147.575 108.056C144.666 126.689 126.033 159.314 125.202 141.72C123.955 124.126 121.946 116.715 104.768 104.455Z" fill="#FF8933"/>
<path d="M72.7663 169.912C58.7051 204.823 74.7058 225.395 113.634 227.266C145.705 228.166 165.169 217.984 165.169 185.359C154.432 183.558 131.505 200.528 130.12 186.329C129.15 173.584 123.331 156.267 111.694 148.093C106.777 161.739 92.2304 200.875 72.7663 169.912Z" fill="#CF4382"/>
<path d="M159.558 61.9245C164.199 68.0201 166.9 75.3624 168.563 82.774C170.294 90.1856 170.848 98.9825 167.246 105.978C165.93 108.611 169.879 110.896 171.195 108.334C175.074 100.645 174.866 91.7787 173.342 83.4667C171.887 75.0853 168.632 66.4269 163.437 59.6387C161.705 57.3529 157.757 59.5695 159.558 61.9245Z" fill="#2C2353"/>
<path d="M155.47 75.5703C158.726 81.8736 160.734 88.6618 158.379 95.6578C157.479 98.4285 161.843 99.606 162.743 96.8353C165.514 88.7311 163.159 80.6268 159.349 73.2845C158.033 70.6524 154.085 72.9382 155.47 75.5703Z" fill="#2C2353"/>
<path d="M79.346 195.68C81.9782 216.114 105.183 220.131 122.222 217.984C125.062 217.638 125.132 213.066 122.222 213.412C108.369 215.213 86.1342 213.274 83.8484 195.68C83.502 192.84 78.9304 192.771 79.346 195.68Z" fill="#9B3262"/>
<path d="M92.3683 198.658C97.217 207.178 106.36 209.325 115.573 208.771C118.482 208.563 118.482 204.061 115.573 204.199C108.023 204.684 100.334 203.507 96.3165 196.372C94.8619 193.809 90.9137 196.095 92.3683 198.658Z" fill="#9B3262"/>
</svg>
