<svg width="194" height="195" viewBox="0 0 194 195" fill="none" xmlns="http://www.w3.org/2000/svg">
<path d="M96.7917 91.5593C87.5392 65.0154 66.3041 2.52355 80.4103 0.0208421C88.1459 -1.34427 93.9098 64.7121 96.7917 91.5593Z" fill="#E187AF"/>
<path d="M98.8398 103.011C99.2949 131.148 100.887 197.052 114.994 194.55C122.805 193.185 105.362 129.176 98.8398 103.011Z" fill="#E187AF"/>
<path d="M92.4688 97.7783C65.7732 107.031 3.28134 128.266 0.778631 114.236C-0.586483 106.424 65.5457 100.66 92.4688 97.7783Z" fill="#E187AF"/>
<path d="M102.024 96.1095C130.237 95.5787 196.293 93.986 193.79 79.8798C192.349 72.1442 128.265 89.5115 102.024 96.1095Z" fill="#E187AF"/>
<path d="M92.6214 94.2138C67.2151 81.9278 7.9843 52.8053 16.175 41.126C20.7254 34.6038 71.6138 77.2257 92.6214 94.2138Z" fill="#FF8933"/>
<path d="M101.798 99.8262C122.047 119.393 169.902 164.897 178.093 153.141C182.567 146.695 125.005 113.705 101.798 99.8262Z" fill="#FF8933"/>
<path d="M93.0766 101.343C80.7906 126.749 51.5924 185.904 39.913 177.713C33.3908 173.239 76.0885 122.35 93.0766 101.343Z" fill="#FF8933"/>
<path d="M99.8262 92.9247C119.469 72.6755 164.972 24.8965 153.293 16.7058C146.771 12.1555 113.705 69.7936 99.8262 92.9247Z" fill="#FF8933"/>
<path d="M83.9752 76.6187C72.7509 64.0293 46.662 34.3002 53.8668 29.674C57.8863 27.0954 76.2395 62.4367 83.9752 76.6187Z" fill="white"/>
<path d="M111.126 117.724C117.8 133.195 133.878 169.37 141.083 164.744C145.102 162.166 120.758 130.692 111.126 117.724Z" fill="white"/>
<path d="M77.3772 110.292C64.7119 121.516 34.9828 147.68 30.3566 140.4C27.778 136.456 63.1193 118.027 77.3772 110.292Z" fill="white"/>
<path d="M116.891 84.1266C132.438 77.3768 168.689 61.2988 164.063 54.0941C161.484 50.0746 129.935 74.4949 116.891 84.1266Z" fill="white"/>
<path d="M73.4333 92.0898C56.5969 91.1039 17.0844 88.6012 18.9046 80.183C19.8905 75.5568 57.8862 87.5394 73.4333 92.0898Z" fill="white"/>
<path d="M120.683 102.556C136.457 108.699 173.391 122.957 175.211 114.538C176.273 109.912 136.761 104.907 120.683 102.556Z" fill="white"/>
<path d="M90.726 120.985C89.7401 137.821 87.1616 177.334 78.8192 175.514C74.193 174.528 86.1757 136.532 90.726 120.985Z" fill="white"/>
<path d="M102.557 73.9641C108.775 58.2653 123.033 21.3314 114.691 19.5112C110.065 18.4495 104.908 57.9619 102.557 73.9641Z" fill="white"/>
</svg>
