<svg width="559" height="191" viewBox="0 0 559 191" fill="none" xmlns="http://www.w3.org/2000/svg">
<path d="M321.951 91.0825C317.502 117.541 310.712 142.595 299.473 170.692C281.21 152.663 268.8 134.4 247.258 107.004" fill="#FFCA5C"/>
<path d="M224.78 110.751C217.288 139.317 211.434 156.175 199.024 187.785C179.824 163.668 164.37 145.405 147.746 119.18" fill="#E187AF"/>
<path d="M343.493 86.8682C361.288 107.473 382.127 126.673 396.644 140.019C401.327 126.439 413.737 81.717 413.034 63.9219" fill="#2A9790"/>
<path d="M438.322 54.79C455.18 71.8827 478.361 87.5705 503.18 101.619C507.395 84.5266 505.99 36.2925 505.053 18.2632" fill="#CF4382"/>
<path d="M122.927 119.18C111.688 143.766 101.151 167.649 86.8682 190.361C73.9902 174.205 52.2145 136.976 41.9121 115.902" fill="#FF8933"/>
<path d="M457.991 62.9853C465.951 68.1365 473.444 73.9902 480.234 80.3121C483.044 82.8877 487.259 78.6731 484.449 76.3316C477.19 69.5414 469.23 63.4536 461.034 58.0682C457.756 55.9609 454.947 60.878 457.991 62.9853Z" fill="#2C2353"/>
<path d="M361.991 98.107C367.766 104.039 373.542 109.97 379.317 115.902C381.893 118.478 385.874 114.263 383.298 111.688C377.522 105.756 371.747 99.8241 365.971 93.8924C363.395 91.3168 359.181 95.2973 361.991 98.107Z" fill="#2C2353"/>
<path d="M265.054 118.01C270.361 125.971 275.668 133.854 280.976 141.659C283.083 144.703 288 141.893 285.893 138.615C280.585 130.81 275.278 123.005 269.971 115.2C267.863 112.156 262.946 114.966 265.054 118.01Z" fill="#2C2353"/>
<path d="M166.712 134.4C173.034 142.829 179.59 151.259 186.849 158.986C189.19 161.795 193.405 157.581 190.829 155.005C184.039 147.512 177.717 139.551 171.863 131.356C169.522 128.547 164.605 131.356 166.712 134.4Z" fill="#2C2353"/>
<path d="M61.3465 135.103C65.8733 143.688 70.4782 152.195 75.1611 160.624C76.8001 163.903 81.9514 161.093 80.0782 157.815C75.5514 149.229 70.9465 140.722 66.2635 132.293C64.6245 129.015 59.7075 131.824 61.3465 135.103Z" fill="#2C2353"/>
<path d="M553.99 -21.0733C480.937 45.1901 377.444 75.8633 283.083 95.2974C189.19 114.497 85.6975 124.8 -9.13174 104.897C-11.9415 104.273 -14.8293 103.649 -17.7952 103.024C-21.3074 102.088 -22.9464 107.707 -19.2 108.644C70.7122 130.185 169.054 121.522 259.2 105.6C355.2 88.9755 457.054 59.7072 536.429 0.936465C543.922 -4.68305 551.102 -10.6148 557.971 -16.8587C560.78 -19.4343 556.8 -23.4148 553.99 -21.0733Z" fill="#2C2353"/>
</svg>
