<svg width="559" height="191" viewBox="0 0 559 191" fill="none" xmlns="http://www.w3.org/2000/svg">
<path d="M237.049 91.0825C241.498 117.541 248.288 142.595 259.527 170.692C277.79 152.663 290.2 134.4 311.742 107.004" fill="#FFCA5C"/>
<path d="M334.22 110.751C341.712 139.317 347.566 156.175 359.976 187.785C379.176 163.668 394.63 145.405 411.254 119.18" fill="#E187AF"/>
<path d="M215.508 86.8682C197.712 107.473 176.873 126.673 162.356 140.019C157.673 126.439 145.264 81.717 145.966 63.9219" fill="#2A9790"/>
<path d="M120.678 54.79C103.82 71.8827 80.6391 87.5705 55.8196 101.619C51.605 84.5266 53.0099 36.2925 53.9465 18.2632" fill="#CF4382"/>
<path d="M436.073 119.18C447.312 143.766 457.849 167.649 472.132 190.361C485.01 174.205 506.785 136.976 517.088 115.902" fill="#FF8933"/>
<path d="M97.9652 58.0682C89.7701 63.4536 81.8092 69.5414 74.5506 76.3316C71.7409 78.6731 75.9556 82.8877 78.7654 80.3121C85.5556 73.9902 93.0483 68.1365 101.009 62.9853C104.053 60.878 101.243 55.9609 97.9652 58.0682Z" fill="#2C2353"/>
<path d="M193.029 93.8924C187.253 99.8241 181.477 105.756 175.702 111.688C173.126 114.263 177.107 118.478 179.682 115.902C185.458 109.97 191.234 104.039 197.009 98.107C199.819 95.2973 195.604 91.3168 193.029 93.8924Z" fill="#2C2353"/>
<path d="M289.029 115.2C283.721 123.005 278.414 130.81 273.107 138.615C270.999 141.893 275.917 144.703 278.024 141.659C283.331 133.854 288.638 125.971 293.946 118.01C296.053 114.966 291.136 112.156 289.029 115.2Z" fill="#2C2353"/>
<path d="M387.136 131.356C381.283 139.551 374.961 147.512 368.17 155.005C365.595 157.581 369.81 161.795 372.151 158.986C379.41 151.259 385.966 142.829 392.288 134.4C394.395 131.356 389.478 128.547 387.136 131.356Z" fill="#2C2353"/>
<path d="M492.737 132.293C488.054 140.722 483.449 149.229 478.922 157.815C477.049 161.093 482.2 163.903 483.839 160.624C488.522 152.195 493.127 143.688 497.654 135.103C499.293 131.824 494.376 129.015 492.737 132.293Z" fill="#2C2353"/>
<path d="M1.02907 -16.8587C71.7413 47.0633 170.317 78.2048 261.868 98.3413C355.292 118.712 455.975 129.015 551.273 114.029C560.327 112.468 569.302 110.673 578.2 108.644C581.946 107.707 580.307 102.088 576.795 103.024C533.946 113.327 489.692 115.2 445.907 114.497C393.224 113.561 340.541 107.473 288.561 97.873C192.561 79.8438 88.5997 49.4048 12.5022 -14.5172C10.0046 -16.5465 7.50714 -18.7318 5.00958 -21.0733C2.19983 -23.4148 -1.78069 -19.4343 1.02907 -16.8587Z" fill="#2C2353"/>
</svg>
