<svg width="135" height="136" viewBox="0 0 135 136" fill="none" xmlns="http://www.w3.org/2000/svg">
<path d="M68.4795 64.0091C69.1234 44.2075 71.0553 -1.8353 80.8757 0.096563C86.3493 1.0625 73.3092 45.6564 68.4795 64.0091Z" fill="#FFCA5C"/>
<path d="M66.8701 71.8975C60.1085 90.4112 44.4926 133.878 54.3129 135.81C59.7866 136.937 64.6162 90.7332 66.8701 71.8975Z" fill="#FFCA5C"/>
<path d="M64.1323 66.9073C44.3307 66.2634 -1.8731 64.3315 0.0587666 54.5112C1.18569 49.0376 45.7796 62.0777 64.1323 66.9073Z" fill="#FFCA5C"/>
<path d="M70.7334 68.1948C89.2471 75.1173 132.714 90.7333 134.646 80.9129C135.773 75.4393 89.5691 70.6097 70.7334 68.1948Z" fill="#FFCA5C"/>
<path d="M65.1006 64.653C51.5775 50.164 20.3456 16.1953 28.5561 10.5607C33.2247 7.50195 55.6022 48.2321 65.1006 64.653Z" fill="#CF4382"/>
<path d="M69.6084 70.6099C77.9798 88.4796 97.6204 130.337 105.992 124.702C110.5 121.643 81.1996 85.5818 69.6084 70.6099Z" fill="#CF4382"/>
<path d="M63.651 69.4829C49.162 82.845 15.1934 114.077 9.55878 105.866C6.5 101.198 47.2301 78.8203 63.651 69.4829Z" fill="#CF4382"/>
<path d="M70.0908 65.6194C87.9606 57.409 129.818 37.6074 124.183 29.397C121.124 24.7283 85.0628 54.0282 70.0908 65.6194Z" fill="#CF4382"/>
<path d="M63.8109 50.969C59.7862 39.8607 50.1269 13.9415 56.0835 12.6536C59.3032 12.0097 62.362 39.6997 63.8109 50.969Z" fill="white"/>
<path d="M71.2158 84.6157C71.6988 96.5289 72.9867 124.058 78.9433 122.931C82.163 122.287 74.2746 95.563 71.2158 84.6157Z" fill="white"/>
<path d="M51.093 71.2534C39.9847 75.4391 13.9046 84.9375 12.7776 78.9809C12.1337 75.7611 39.8237 72.7023 51.093 71.2534Z" fill="white"/>
<path d="M83.4521 64.1702C95.3653 63.6872 123.055 62.3993 121.767 56.4427C121.124 53.2229 94.3994 61.1114 83.4521 64.1702Z" fill="white"/>
<path d="M53.1856 58.3748C42.3994 53.5451 17.1242 41.793 20.5049 36.8023C22.2758 34.0655 44.1703 51.4523 53.1856 58.3748Z" fill="white"/>
<path d="M81.3594 77.21C90.0528 85.0984 110.498 103.773 113.879 98.7825C115.65 96.0457 91.1797 82.6836 81.3594 77.21Z" fill="white"/>
<path d="M57.0496 81.5566C52.22 92.3429 40.4678 117.457 35.4771 114.237C32.7403 112.306 50.1271 90.572 57.0496 81.5566Z" fill="white"/>
<path d="M76.6904 53.8669C84.7399 45.1735 103.415 24.7279 98.4239 21.3471C95.5261 19.5762 82.325 44.0465 76.6904 53.8669Z" fill="white"/>
</svg>
