<svg width="139" height="140" viewBox="0 0 139 140" fill="none" xmlns="http://www.w3.org/2000/svg">
<path d="M68.1451 65.8642C67.4821 45.4768 65.4931 -1.92831 55.3822 0.0607099C49.7466 1.05522 63.1726 46.9685 68.1451 65.8642Z" fill="#2A9790"/>
<path d="M69.8027 73.9863C76.7643 93.0478 92.8423 137.801 82.7314 139.79C77.0958 140.784 72.1233 93.2136 69.8027 73.9863Z" fill="#2A9790"/>
<path d="M72.6201 68.8478C93.0076 68.1848 140.578 66.1958 138.589 56.0849C137.429 50.4494 91.5158 63.7095 72.6201 68.8478Z" fill="#2A9790"/>
<path d="M65.8244 70.1743C46.7629 77.1359 2.00987 93.2138 0.0208506 83.103C-1.13941 77.6331 46.4314 72.4948 65.8244 70.1743Z" fill="#2A9790"/>
<path d="M71.625 66.5273C85.5482 51.6096 117.704 16.6359 109.251 10.8346C104.444 7.68532 81.4044 49.6206 71.625 66.5273Z" fill="#FF8933"/>
<path d="M66.9841 72.6602C58.365 91.0586 38.1432 133.988 29.5241 128.353C24.8831 125.204 55.0499 87.9093 66.9841 72.6602Z" fill="#FF8933"/>
<path d="M73.1172 71.334C88.0349 85.2572 123.009 117.413 128.81 108.794C131.959 104.153 90.0239 81.1134 73.1172 71.334Z" fill="#FF8933"/>
<path d="M66.4871 67.5218C48.0886 58.9027 4.99311 38.681 10.7944 30.2276C13.9437 25.4208 51.0722 55.5877 66.4871 67.5218Z" fill="#FF8933"/>
<path d="M72.9521 52.4384C77.0959 41.0015 87.0411 14.1497 80.9082 12.9894C77.5932 12.3264 74.4439 40.8357 72.9521 52.4384Z" fill="white"/>
<path d="M65.3275 87.0806C64.8302 99.1805 63.5042 127.69 57.3714 126.53C54.0563 125.867 62.1782 98.3517 65.3275 87.0806Z" fill="white"/>
<path d="M86.0459 73.3228C97.4828 77.6323 124.335 87.4117 125.495 81.2789C126.158 77.9638 97.6485 74.8145 86.0459 73.3228Z" fill="white"/>
<path d="M52.73 66.0301C40.4644 65.5329 11.955 64.2068 13.281 58.074C13.9441 54.759 41.4589 62.8808 52.73 66.0301Z" fill="white"/>
<path d="M83.8916 60.0631C94.997 54.9248 121.02 42.9907 117.539 37.8524C115.716 35.0346 93.1737 52.9358 83.8916 60.0631Z" fill="white"/>
<path d="M54.8845 79.2905C45.9339 87.5781 24.8834 106.805 21.4026 101.667C19.5793 98.8493 44.7736 85.0918 54.8845 79.2905Z" fill="white"/>
<path d="M79.9131 83.9312C84.8856 95.0365 96.9855 120.894 102.124 117.579C104.942 115.59 87.0404 93.2133 79.9131 83.9312Z" fill="white"/>
<path d="M59.6913 55.4221C51.4037 46.4715 32.1765 25.4209 37.3148 21.9402C40.2983 20.1169 53.89 45.3112 59.6913 55.4221Z" fill="white"/>
</svg>
