<svg width="509" height="470" viewBox="0 0 509 470" fill="none" xmlns="http://www.w3.org/2000/svg">
<path d="M509 392.583C509 435.371 395.06 470 254.417 470C113.94 470 0 435.371 0 392.583C0 349.796 113.94 315 254.417 315C395.06 315 509 349.796 509 392.583Z" fill="#3B2F6E"/>
<path d="M119.152 0.224465C111.361 0.0587135 109.041 11.3299 116.334 14.3134C120.312 15.9709 125.119 14.1476 126.61 10.0038C127.439 7.84906 126.776 4.86552 125.45 3.04225C123.958 1.05323 121.638 0.390217 119.152 0.224465C116.5 0.224465 116.5 4.36827 119.152 4.36827C121.804 4.36827 123.793 6.6888 122.467 9.17508C121.638 10.9983 118.654 10.9983 117.328 10.1696C116.168 9.50658 115.837 8.01481 116.002 6.85455C116.334 5.03127 117.494 4.36827 119.152 4.36827C121.804 4.36827 121.804 0.390217 119.152 0.224465Z" fill="#2C2353"/>
<path d="M16.3853 128.848C9.7552 128.682 7.76618 138.296 14.0648 140.782C17.3798 142.274 21.5236 140.616 22.6839 137.136C24.3414 132.66 20.6948 129.014 16.3853 128.848C13.7333 128.682 13.899 132.826 16.3853 132.992C18.2086 132.992 19.5346 134.318 18.7058 136.141C18.2086 137.467 16.0538 137.467 15.0593 136.804C14.3963 136.307 14.2305 135.147 14.2305 134.484C14.562 133.489 15.225 132.826 16.3853 132.992C19.0373 132.992 19.0373 128.848 16.3853 128.848Z" fill="#2C2353"/>
<path d="M220.757 109.124C216.448 108.958 212.967 111.61 212.138 115.919C211.475 119.897 213.464 124.041 217.277 125.533C221.918 127.522 227.719 125.367 229.542 120.56C231.697 114.428 226.559 109.289 220.757 109.124C218.105 108.958 218.105 113.102 220.757 113.102C224.404 113.267 227.056 116.417 225.398 120.063C224.072 122.549 220.094 122.549 218.105 121.389C216.448 120.395 215.95 118.24 216.282 116.582C216.613 114.262 218.437 113.102 220.757 113.102C223.409 113.267 223.409 109.124 220.757 109.124Z" fill="#2C2353"/>
<path d="M468.391 103.819C460.601 103.653 458.28 114.925 465.574 117.908C469.552 119.4 474.358 117.577 475.85 113.599C476.513 111.278 476.016 108.46 474.524 106.637C473.198 104.648 470.878 103.985 468.391 103.819C465.739 103.819 465.739 107.797 468.391 107.963C470.878 107.963 472.867 110.284 471.706 112.77C470.878 114.593 467.894 114.593 466.402 113.764C465.408 113.101 464.911 111.61 465.242 110.284C465.574 108.626 466.734 107.963 468.391 107.963C471.043 107.963 471.043 103.819 468.391 103.819Z" fill="#2C2353"/>
<path d="M435.074 5.0315C435.074 14.3136 435.074 23.5957 435.074 32.8778C435.074 35.5299 439.218 35.5299 439.218 32.8778C439.218 23.5957 439.218 14.3136 439.218 5.0315C439.218 2.37947 435.074 2.37947 435.074 5.0315Z" fill="#2C2353"/>
<path d="M423.14 20.7778C432.423 21.2751 441.87 20.9436 451.318 20.7778C453.97 20.7778 453.97 16.7998 451.318 16.7998C441.87 16.7998 432.423 17.1313 423.14 16.7998C420.488 16.634 420.488 20.7778 423.14 20.7778Z" fill="#2C2353"/>
<path d="M426.124 10.6672C432.588 17.1316 438.887 23.5959 445.351 30.0602C447.174 31.8835 450.158 29.0657 448.335 27.0767C441.87 20.7781 435.406 14.148 428.942 7.6837C427.118 5.86042 424.301 8.84396 426.124 10.6672Z" fill="#2C2353"/>
<path d="M429.605 30.3914C435.406 23.4298 441.373 16.634 447.672 10.3354C449.495 8.34637 446.678 5.52858 444.689 7.35186C438.39 13.8162 432.589 20.612 426.622 27.4078C424.964 29.3969 427.782 32.3804 429.605 30.3914Z" fill="#2C2353"/>
<path d="M93.6257 119.731C93.6257 119.731 93.9572 120.229 94.4545 121.057C94.9517 121.886 95.6147 123.046 96.2777 124.538C96.775 125.864 97.2722 127.522 97.6037 129.345C97.8247 130.229 97.9905 131.168 98.101 132.163C98.2115 133.047 98.2667 133.986 98.2667 134.981C98.2667 135.975 98.2115 136.914 98.101 137.798C98.101 138.793 97.9905 139.732 97.7695 140.616C97.438 142.439 96.9407 144.097 96.2777 145.589C95.7805 147.081 95.1175 148.241 94.4545 149.07C93.9572 149.898 93.6257 150.396 93.6257 150.396C93.6257 150.396 93.1284 149.898 92.7969 149.07C92.1339 148.241 91.6367 146.915 91.1394 145.589C90.4764 144.097 90.1449 142.439 89.8134 140.782C89.5924 139.898 89.4266 138.959 89.3161 137.964C89.3161 136.97 89.2609 136.03 89.1504 135.146C89.1504 134.152 89.2056 133.157 89.3161 132.163C89.4266 131.279 89.5371 130.395 89.6476 129.511C89.9791 127.688 90.4764 126.03 90.9737 124.538C91.6367 123.046 92.1339 121.886 92.6312 121.057C93.1284 120.229 93.6257 119.731 93.6257 119.731Z" fill="#FFD8A4"/>
<path d="M80.1997 134.981C80.1997 134.981 80.5312 134.649 81.36 134.152C82.023 133.655 83.1832 132.992 84.3435 132.494C85.6695 131.831 87.1613 131.334 88.8188 131.003C89.5923 130.892 90.3658 130.782 91.1393 130.671C92.0234 130.561 92.9074 130.505 93.7914 130.505C94.5649 130.505 95.3936 130.561 96.2777 130.671C97.0512 130.782 97.8799 130.892 98.7639 131.003C100.256 131.334 101.747 131.831 103.073 132.494C104.234 132.992 105.394 133.655 106.057 134.152C106.886 134.649 107.217 134.981 107.217 134.981C107.217 134.981 106.886 135.478 106.057 135.975C105.394 136.472 104.234 137.135 103.073 137.633C101.747 138.296 100.256 138.793 98.7639 139.124C97.8799 139.235 97.0512 139.345 96.2777 139.456C95.3936 139.566 94.5649 139.622 93.7914 139.622C92.9074 139.622 92.0234 139.566 91.1393 139.456C90.3658 139.345 89.5923 139.18 88.8188 138.959C87.1613 138.627 85.6695 138.296 84.3435 137.633C83.1832 137.135 82.023 136.472 81.36 135.975C80.5312 135.478 80.1997 134.981 80.1997 134.981Z" fill="#FFD8A4"/>
<path d="M408.886 226.974C400.267 224.487 390.985 222.996 382.531 227.139C375.57 230.786 371.094 240.731 372.586 248.356C376.067 267.251 400.93 272.887 412.035 257.14C422.146 242.886 399.604 230.289 388.498 240.234C375.57 251.836 400.598 264.931 400.433 248.521C400.433 246.035 396.455 245.869 396.455 248.521C396.455 256.643 382.863 248.853 392.145 242.72C396.952 239.405 404.411 240.897 408.389 244.543C412.367 248.024 409.88 253.66 407.063 256.975C403.582 261.119 398.278 262.61 392.808 262.445C378.553 261.782 372.918 245.869 379.879 234.93C385.846 225.813 399.107 228.465 407.726 230.952C410.378 231.615 411.372 227.637 408.886 226.974Z" fill="#2C2353"/>
<path d="M246.283 154.374L226.559 168.463L204.017 154.374C204.017 154.374 189.265 169.955 185.784 173.601L162.91 159.015L145.672 181.06L120.146 167.966L106.554 189.348L78.8738 179.568L72.5752 199.956L102.079 333.055C105.063 335.707 114.345 341.84 118.157 341.84L134.235 325.762L154.622 338.193L168.048 319.629L187.773 332.06L202.028 312.999L220.923 327.088L235.675 308.192L254.239 320.126L255.565 163.656L246.283 154.374Z" fill="#FFCA5C"/>
<path d="M137.716 252.831C131.749 224.653 120.146 167.966 120.146 167.966L106.554 189.182C112.356 215.868 116.499 237.747 121.306 262.279C125.616 283.495 134.235 325.762 134.235 325.762L154.622 338.193C154.622 338.193 143.517 281.174 137.716 252.831Z" fill="#FF8933"/>
<path d="M187.607 332.06C187.607 332.06 165.23 173.436 162.91 159.015L145.671 181.06L168.048 319.629L187.607 332.06Z" fill="#FF8933"/>
<path d="M220.923 327.088C218.105 298.247 204.016 154.374 204.016 154.374C204.016 154.374 189.927 169.292 185.784 173.601C189.099 198.63 198.547 287.97 202.027 312.999L220.923 327.088Z" fill="#FF8933"/>
<path d="M235.675 308.192L254.239 320.126L255.565 163.656L246.283 154.374L226.559 168.463" fill="#FF8933"/>
<path d="M119.814 174.927C130.091 227.305 141.031 279.682 151.97 331.894C152.468 334.546 156.446 333.386 155.948 330.734C145.009 278.522 134.069 226.144 123.792 173.767C123.295 171.115 119.317 172.275 119.814 174.927Z" fill="#2C2353"/>
<path d="M161.584 166.142C169.54 219.515 177.496 272.887 185.12 326.425C185.452 328.911 189.43 327.916 189.098 325.264C181.474 271.892 173.518 218.354 165.562 164.982C165.23 162.33 161.252 163.49 161.584 166.142Z" fill="#2C2353"/>
<path d="M202.69 160.507C207.884 214.1 213.132 267.638 218.437 321.12C218.602 323.772 222.746 323.772 222.415 321.12C217.221 267.638 212.027 214.1 206.834 160.507C206.502 157.855 202.524 157.855 202.69 160.507Z" fill="#2C2353"/>
<path d="M78.8735 176.419C78.8735 176.419 70.5859 174.098 16.5508 194.32C33.4575 255.98 49.0382 321.286 59.6463 359.243C80.1995 355.597 104.565 348.967 121.969 345.486C108.046 282.5 92.2994 225.647 78.8735 176.419Z" fill="#CF4382"/>
<path d="M76.3871 199.127C76.3871 199.127 70.0885 197.47 29.645 212.553C42.4079 258.964 54.0106 307.86 61.9667 336.37C77.3816 333.552 95.6143 328.745 108.709 325.927C98.2664 278.854 86.498 236.256 76.3871 199.127Z" fill="white"/>
<path d="M78.3762 213.713C69.5361 215.923 60.7513 218.133 52.0217 220.343C46.8834 221.503 49.0381 229.459 54.1765 228.133C62.9061 225.923 71.6909 223.713 80.531 221.503C85.6693 220.343 83.5146 212.387 78.3762 213.713Z" fill="#2C2353"/>
<path d="M84.6749 231.449C75.3928 233.935 66.1107 236.421 56.497 238.244C51.3587 239.239 53.5135 247.195 58.8176 246.201C68.2654 244.377 77.5476 241.891 86.8297 239.239C91.8022 237.913 89.6474 229.957 84.6749 231.449Z" fill="#2C2353"/>
<path d="M88.9843 250.676C79.8127 253.107 70.641 255.483 61.4694 257.803C56.3311 259.295 58.4859 267.085 63.6242 265.759C72.7958 263.328 81.9674 260.952 91.139 258.632C96.2774 257.306 94.1226 249.35 88.9843 250.676Z" fill="#2C2353"/>
<path d="M92.465 263.107C83.2934 265.207 74.177 267.306 65.1159 269.406C59.9776 270.566 62.1324 278.522 67.2707 277.362C76.3318 275.152 85.4482 272.997 94.6198 270.897C99.7581 269.737 97.6033 261.781 92.465 263.107Z" fill="#2C2353"/>
<path d="M97.2724 282.998C87.9902 285.318 79.0396 287.97 69.5918 289.793C64.4535 290.954 66.6082 298.744 71.9123 297.75C81.1944 295.926 90.3108 293.108 99.4271 290.954C104.565 289.793 102.411 281.837 97.2724 282.998Z" fill="#2C2353"/>
<path d="M101.913 304.379C92.9625 306.589 84.0119 308.799 75.0613 311.01C70.0887 312.336 72.2435 320.292 77.3818 318.966C86.2219 316.756 95.1173 314.546 104.068 312.336C109.206 311.01 107.051 303.053 101.913 304.379Z" fill="#2C2353"/>
<path d="M83.5143 224.487C67.9336 228.686 52.3529 232.83 36.7722 236.919C34.286 237.582 35.2805 241.56 37.9325 240.897C53.4027 236.698 68.9281 232.554 84.5088 228.465C87.1608 227.802 86.0006 223.824 83.5143 224.487Z" fill="#2C2353"/>
<path d="M86.8296 242.72C71.8014 246.587 56.7732 250.51 41.7451 254.488C39.093 255.151 40.2533 259.129 42.7396 258.3C57.8783 254.433 72.9617 250.565 87.9899 246.698C90.4761 246.035 89.4816 242.057 86.8296 242.72Z" fill="#2C2353"/>
<path d="M96.4429 274.876C80.7517 278.633 65.1158 282.334 49.5351 285.981C46.8831 286.644 48.0433 290.622 50.5296 289.959C66.2208 286.312 81.8567 282.611 97.4374 278.854C100.089 278.191 98.9292 274.213 96.4429 274.876Z" fill="#2C2353"/>
<path d="M101.416 295.263C85.9457 299.241 70.4755 303.219 55.0053 307.197C52.3533 307.86 53.5135 311.838 55.9998 311.175C71.47 307.197 86.9402 303.219 102.41 299.241C105.062 298.578 103.902 294.6 101.416 295.263Z" fill="#2C2353"/>
<path d="M106.72 315.65C91.1393 319.628 75.5587 323.607 59.978 327.585C57.3259 328.248 58.4862 332.226 60.9725 331.563C76.5532 327.585 92.1891 323.606 107.88 319.628C110.367 318.965 109.206 314.987 106.72 315.65Z" fill="#2C2353"/>
<path d="M77.7132 204.597C62.5745 208.796 47.4358 212.995 32.2971 217.194C29.8109 218.023 30.8054 221.835 33.4574 221.172C48.5961 216.973 63.7348 212.774 78.8734 208.575C81.3597 207.912 80.3652 203.934 77.7132 204.597Z" fill="#2C2353"/>
<path d="M49.7012 192.828C57.9888 190.508 66.2211 188.243 74.3982 186.033C77.0502 185.204 75.89 181.392 73.4037 182.055C65.1161 184.265 56.8285 186.53 48.5409 188.85C46.0546 189.513 47.2149 193.491 49.7012 192.828Z" fill="#2C2353"/>
<path d="M251.421 327.088C269.157 325.762 294.351 325.264 315.236 323.11C314.904 283.826 311.755 216.697 310.76 152.717C253.41 148.241 246.117 152.717 246.117 152.717C246.78 203.768 247.277 262.776 251.421 327.088Z" fill="#CF4382"/>
<path d="M258.714 304.711C272.14 303.717 291.036 303.385 306.617 301.893C306.285 272.224 303.965 222.001 303.302 173.933C260.206 170.618 254.736 173.933 254.736 173.933C255.234 212.387 255.731 256.477 258.714 304.711Z" fill="#9B3262"/>
<path d="M290.041 199.127C299.323 199.127 299.323 184.707 290.041 184.707C280.759 184.707 280.759 199.127 290.041 199.127Z" fill="#E187AF"/>
<path d="M291.864 229.791C301.147 229.791 301.147 215.371 291.864 215.371C282.582 215.371 282.582 229.791 291.864 229.791Z" fill="#E187AF"/>
<path d="M293.025 261.118C302.307 261.118 302.307 246.863 293.025 246.863C283.743 246.863 283.743 261.118 293.025 261.118Z" fill="#E187AF"/>
<path d="M293.357 291.119C302.639 291.119 302.639 276.865 293.357 276.865C284.074 276.865 284.074 291.119 293.357 291.119Z" fill="#E187AF"/>
<path d="M267.499 214.874C276.781 214.874 276.781 200.453 267.499 200.453C258.217 200.453 258.217 214.874 267.499 214.874Z" fill="#E187AF"/>
<path d="M269.488 246.035C278.77 246.035 278.77 231.614 269.488 231.614C260.206 231.614 260.206 246.035 269.488 246.035Z" fill="#E187AF"/>
<path d="M270.317 277.03C279.599 277.03 279.599 262.61 270.317 262.61C261.035 262.61 261.035 277.03 270.317 277.03Z" fill="#E187AF"/>
<path d="M259.046 321.452C267.997 321.01 276.947 320.568 285.898 320.126C288.55 319.96 288.55 315.982 285.898 315.982C276.947 316.424 267.997 316.866 259.046 317.308C256.56 317.474 256.394 321.618 259.046 321.452Z" fill="#2C2353"/>
<path d="M162.744 328.248C135.229 330.237 81.0285 342.337 46.0548 356.591C20.6948 367.034 20.529 379.134 32.4632 406.151C39.0933 422.395 57.326 435.489 73.9012 438.804C90.6421 442.119 189.265 397.2 207.497 387.753C227.388 377.476 184.126 322.778 162.744 328.248Z" fill="#2A9790"/>
<path d="M34.121 373.332C59.1495 381.951 74.5645 404.328 74.7302 430.517C74.7302 433.169 78.874 433.169 78.7083 430.517C78.7083 402.339 61.9673 378.47 35.2812 369.354C32.795 368.525 31.6347 372.503 34.121 373.332Z" fill="#20716C"/>
<path d="M54.1769 369.852C64.785 366.371 75.0616 362.393 85.3382 358.249C87.8245 357.255 86.6643 353.277 84.3437 354.271C73.9014 358.415 63.6247 362.393 53.1824 365.874C50.6961 366.702 51.6906 370.681 54.1769 369.852Z" fill="#20716C"/>
<path d="M66.277 377.808C73.0728 375.819 79.5371 372.669 86.1672 370.349C88.6535 369.52 87.4932 365.542 85.0069 366.371C78.3769 368.691 72.0783 371.841 65.2824 373.83C62.7962 374.493 63.7907 378.471 66.277 377.808Z" fill="#20716C"/>
<path d="M145.506 345.32C152.965 342.502 160.755 340.845 168.545 340.016C171.032 339.685 171.198 335.541 168.545 335.872C160.258 336.867 152.136 338.359 144.511 341.342C142.025 342.171 143.02 346.149 145.506 345.32Z" fill="#20716C"/>
<path d="M154.623 351.784C158.932 351.287 163.076 350.293 167.22 349.132C169.706 348.469 168.711 344.491 166.059 345.154C162.413 346.149 158.601 347.143 154.623 347.806C152.136 348.138 152.136 352.116 154.623 351.784Z" fill="#20716C"/>
<path d="M163.242 377.973C174.015 375.155 184.458 370.514 195.066 367.034C197.552 366.205 196.558 362.393 194.071 363.056C183.298 366.536 173.021 371.177 162.081 374.161C159.595 374.824 160.59 378.636 163.242 377.973Z" fill="#20716C"/>
<path d="M174.181 386.592C180.48 384.272 186.612 381.288 193.243 380.625C195.895 380.294 195.895 376.15 193.243 376.481C186.115 377.31 179.817 380.294 173.187 382.78C170.7 383.609 171.861 387.587 174.181 386.592Z" fill="#20716C"/>
<path d="M86.4984 407.312C92.134 405.82 97.6038 403.831 103.405 402.505C106.057 402.007 104.897 398.029 102.245 398.692C96.6093 399.853 90.9737 401.842 85.3382 403.499C82.8519 404.162 83.8464 408.14 86.4984 407.312Z" fill="#20716C"/>
<path d="M90.311 420.074C102.577 415.599 115.008 411.124 127.605 407.477C130.091 406.648 129.097 402.67 126.445 403.499C113.848 407.146 101.582 411.621 89.1508 416.096C86.6645 416.925 87.8247 420.903 90.311 420.074Z" fill="#20716C"/>
<path d="M97.2719 341.674C109.538 345.32 119.317 358.58 126.444 368.691C136.058 382.614 142.025 399.853 142.356 416.759C142.356 419.411 146.5 419.411 146.5 416.759C146.003 398.195 139.373 380.128 128.931 365.045C121.472 354.437 111.195 341.508 98.2664 337.696C95.7801 337.033 94.6199 340.845 97.2719 341.674Z" fill="#2C2353"/>
<path d="M37.4356 414.605C60.9724 396.538 87.4927 383.941 115.836 375.156C131.251 370.349 146.832 365.874 162.413 361.564C175.341 358.083 188.767 352.779 202.359 353.608C205.011 353.774 205.011 349.63 202.359 349.464C190.425 348.636 178.822 352.779 167.551 355.929C150.976 360.57 134.235 365.211 117.825 370.349C87.99 379.3 60.1437 392.063 35.4466 411.124C33.2918 412.616 35.2809 416.262 37.4356 414.605Z" fill="#2C2353"/>
<path d="M127.273 367.863C122.135 367.531 99.0955 368.194 103.405 358.083C106.057 351.951 124.787 365.874 126.942 368.857C128.102 370.681 131.583 369.52 130.588 367.366C129.428 364.216 129.428 361.067 129.594 357.918C129.76 355.431 130.588 352.614 132.246 350.625C134.235 347.973 140.036 349.464 139.373 353.111C138.379 358.581 132.08 364.216 127.936 367.531C125.782 369.023 128.765 372.007 130.754 370.349C136.224 366.039 150.313 352.282 139.705 346.315C126.776 339.188 123.627 360.57 126.61 368.36C127.936 367.807 129.207 367.31 130.423 366.868C126.445 361.067 106.554 346.149 100.422 355.266C96.775 360.404 100.256 366.205 105.063 368.692C111.693 372.338 120.146 371.675 127.273 371.841C129.925 372.007 129.925 367.863 127.273 367.863Z" fill="#2C2353"/>
<path d="M126.444 368.692C124.621 373.996 119.648 377.476 116.333 381.62C113.018 385.764 112.024 390.239 113.018 395.378C113.516 397.864 117.494 396.869 116.996 394.217C114.842 383.775 127.273 378.637 130.422 369.686C131.251 367.2 127.273 366.205 126.444 368.692Z" fill="#2C2353"/>
<path d="M131.251 372.338C141.362 374.658 147.992 382.449 156.446 387.753C158.6 389.079 160.755 385.598 158.435 384.272C149.65 378.802 142.854 370.846 132.412 368.36C129.759 367.697 128.765 371.675 131.251 372.338Z" fill="#2C2353"/>
<path d="M178.656 376.15C172.524 375.819 166.556 376.647 160.589 377.31C155.285 377.808 155.285 385.93 160.589 385.432C166.556 384.935 172.524 383.941 178.656 384.438C183.96 384.769 183.795 376.482 178.656 376.15Z" fill="#FFCA5C"/>
<path d="M192.579 385.598C187.11 391.731 182.8 399.024 176.336 404.162C172.026 407.477 177.993 413.279 182.137 409.964C188.601 404.825 192.911 397.532 198.381 391.399C202.027 387.421 196.226 381.62 192.579 385.598Z" fill="#FFCA5C"/>
<path d="M219.929 401.676C219.266 408.803 218.272 415.93 216.78 422.892C215.62 428.03 223.576 430.351 224.736 425.213C226.393 417.422 227.554 409.466 228.051 401.676C228.548 396.372 220.261 396.372 219.929 401.676Z" fill="#FFCA5C"/>
<path d="M273.466 404.328C272.969 412.616 272.969 420.903 271.477 429.025C270.483 434.163 278.439 436.318 279.434 431.18C280.925 422.229 281.257 413.279 281.754 404.328C281.92 399.024 273.798 399.024 273.466 404.328Z" fill="#FFCA5C"/>
<path d="M321.701 405.986C320.209 413.942 318.551 422.063 317.391 430.02C316.562 435.158 324.518 437.478 325.347 432.174C326.507 424.218 327.999 416.096 329.657 408.14C330.651 403.002 322.861 400.847 321.701 405.986Z" fill="#FFCA5C"/>
<path d="M352.862 411.953C353.359 419.08 354.022 426.208 355.182 433.335C356.011 438.473 363.801 436.318 362.973 431.18C361.978 424.881 361.481 418.417 360.984 411.953C360.486 406.815 352.365 406.815 352.862 411.953Z" fill="#FFCA5C"/>
<path d="M393.305 416.262C397.449 422.064 401.924 427.699 405.902 433.832C408.72 438.142 415.847 434.164 412.864 429.688C409.052 423.555 404.576 417.92 400.432 412.119C397.283 407.975 390.156 411.953 393.305 416.262Z" fill="#FFCA5C"/>
<path d="M442.534 411.289C447.009 417.422 451.65 423.389 456.788 429.191C460.269 433.003 466.07 427.202 462.59 423.389C457.949 418.196 453.584 412.781 449.495 407.146C446.512 403.002 439.384 407.146 442.534 411.289Z" fill="#FFCA5C"/>
<path d="M467.894 397.532C476.347 397.698 484.634 400.184 493.088 400.847C498.392 401.179 498.226 393.057 493.088 392.56C484.634 391.897 476.347 389.576 467.894 389.245C462.59 389.245 462.59 397.366 467.894 397.532Z" fill="#FFCA5C"/>
<path d="M317.059 409.301C312.916 414.439 308.938 419.411 304.96 424.55C302.473 427.699 306.783 432.009 309.269 429.025C313.247 423.887 317.391 418.748 321.369 413.61C323.69 410.627 319.38 406.151 317.059 409.301Z" fill="#FFCA5C"/>
<path d="M273.301 412.45C276.616 418.748 279.931 425.047 283.743 431.014C285.732 434.495 291.036 431.346 289.047 428.03C285.235 421.898 281.92 415.599 278.605 409.301C276.782 405.82 271.477 408.969 273.301 412.45Z" fill="#FFCA5C"/>
<path d="M392.642 416.428C392.642 422.284 392.642 428.086 392.642 433.832C392.642 437.81 398.775 437.81 398.775 433.832C398.775 428.086 398.775 422.284 398.775 416.428C398.775 412.45 392.642 412.45 392.642 416.428Z" fill="#FFCA5C"/>
<path d="M473.529 399.355C478.667 402.339 482.48 407.146 487.121 410.958C490.104 413.278 494.58 408.969 491.43 406.482C486.292 402.504 482.148 397.366 476.513 394.051C473.197 392.062 470.048 397.366 473.529 399.355Z" fill="#FFCA5C"/>
<path d="M173.187 380.294C169.209 384.604 165.396 389.908 159.761 392.063C156.114 393.554 157.606 399.521 161.418 398.03C168.214 395.378 172.689 390.074 177.496 384.604C180.148 381.62 175.839 377.311 173.187 380.294Z" fill="#FFCA5C"/>
<path d="M219.1 405.488C213.133 409.964 207.166 414.77 201.199 419.246C197.884 421.566 201.033 426.87 204.182 424.55C210.315 420.074 216.117 415.268 222.249 410.792C225.399 408.472 222.415 403.168 219.1 405.488Z" fill="#FFCA5C"/>
<path d="M247.775 408.803C247.278 414.107 247.112 419.577 246.118 424.881C245.455 428.694 251.422 430.351 252.085 426.539C253.245 420.572 253.245 414.605 253.908 408.803C254.24 404.825 248.107 404.825 247.775 408.803Z" fill="#FFCA5C"/>
<path d="M424.466 417.257C426.29 422.395 427.781 427.699 429.439 433.003C430.599 436.815 436.401 435.158 435.406 431.511C433.749 426.207 432.091 420.903 430.433 415.599C429.107 411.787 423.306 413.444 424.466 417.257Z" fill="#FFCA5C"/>
<path d="M316.065 357.254C242.471 370.017 192.745 323.109 175.839 365.708C153.628 421.566 292.694 412.781 321.866 412.781C344.74 414.936 498.558 442.782 477.673 378.305C465.242 342.834 421.483 372.172 348.552 357.42" fill="#FFCA5C"/>
<path d="M260.207 357.752C283.743 264.93 376.73 266.422 393.471 361.895Z" fill="#FFCA5C"/>
<path d="M326.01 299.407C322.695 316.811 320.54 334.547 320.871 352.448C321.037 355.1 325.181 355.1 325.015 352.448C324.684 334.878 326.673 317.64 329.822 300.402C330.319 297.915 326.341 296.755 326.01 299.407Z" fill="#FF8933"/>
<path d="M312.252 299.076C299.986 312.17 291.865 327.751 290.373 345.818C290.041 348.47 294.185 348.47 294.351 345.818C295.843 328.911 303.633 314.159 315.07 301.894C316.893 299.905 314.075 297.087 312.252 299.076Z" fill="#FF8933"/>
<path d="M342.585 303.054C353.027 317.308 355.348 333.055 355.348 350.293C355.348 352.779 359.491 352.779 359.491 350.293C359.326 332.392 357.005 315.651 346.065 301.065C344.574 298.91 340.927 301.065 342.585 303.054Z" fill="#FF8933"/>
<path d="M293.522 309.85C311.423 322.944 343.248 325.928 362.807 315.319C365.127 314.159 363.138 310.513 360.818 311.839C342.419 321.784 312.252 318.634 295.511 306.369C293.522 304.711 291.367 308.358 293.522 309.85Z" fill="#FF8933"/>
<path d="M281.422 329.076C307.943 343.497 345.568 354.105 373.746 338.359C376.067 337.032 374.078 333.552 371.757 334.712C344.905 349.795 308.771 339.187 283.577 325.43C281.257 324.27 279.102 327.75 281.422 329.076Z" fill="#FF8933"/>
<path d="M239.653 363.222C251.09 386.593 280.428 389.41 303.302 391.565C305.954 391.897 305.954 387.753 303.302 387.587C281.92 385.432 253.907 382.946 243.299 361.233C242.139 358.912 238.493 360.901 239.653 363.222Z" fill="#FF8933"/>
<path d="M212.138 362.227C204.182 392.725 247.277 401.179 268.825 401.51C271.477 401.51 271.477 397.366 268.825 397.366C250.261 397.2 209.154 390.57 216.116 363.387C216.779 360.735 212.801 359.741 212.138 362.227Z" fill="#FF8933"/>
<path d="M413.858 369.354C414.687 390.073 380.045 390.239 366.122 390.239C363.47 390.239 363.47 394.383 366.122 394.383C382.531 394.217 418.997 393.223 418.002 369.354C417.836 366.702 413.858 366.702 413.858 369.354Z" fill="#FF8933"/>
<path d="M441.87 371.012C443.03 399.19 412.201 402.173 390.819 403.997C388.167 404.162 388.167 408.306 390.819 407.975C414.521 406.151 447.174 401.842 445.848 371.012C445.848 368.36 441.704 368.36 441.87 371.012Z" fill="#FF8933"/>
<path d="M397.946 373.996C419.493 381.62 441.704 386.924 464.578 386.759C467.23 386.759 467.23 382.615 464.578 382.615C442.036 382.946 420.156 377.642 398.94 370.183C396.454 369.189 395.459 373.167 397.946 373.996Z" fill="#FF8933"/>
<path d="M383.691 383.443C402.421 389.079 414.687 406.815 435.074 408.638C437.726 408.804 437.726 404.66 435.074 404.494C415.516 402.671 403.084 384.935 384.851 379.465C382.199 378.637 381.205 382.615 383.691 383.443Z" fill="#FF8933"/>
<path d="M253.576 364.879C236.338 372.835 218.602 378.305 199.872 381.62C197.386 382.117 198.381 385.93 201.033 385.598C219.928 382.117 238.161 376.482 255.731 368.36C258.051 367.366 255.896 363.719 253.576 364.879Z" fill="#FF8933"/>
<path d="M269.488 373.001C255.565 381.123 244.625 393.72 229.542 399.687C227.055 400.516 228.05 404.494 230.536 403.665C246.117 397.532 257.222 384.935 271.477 376.648C273.798 375.322 271.808 371.675 269.488 373.001Z" fill="#FF8933"/>
<path d="M257.389 348.469C290.539 373.664 364.299 378.802 397.449 354.602" stroke="#7665D0" stroke-width="25.5219" stroke-miterlimit="10"/>
<path d="M257.389 348.469C290.539 373.664 364.299 378.802 397.449 354.602" stroke="#9785DD" stroke-width="9.36585" stroke-miterlimit="10"/>
<path d="M310.927 403.665C327.833 399.687 343.082 406.98 359.658 407.974C362.31 408.14 362.31 404.162 359.658 403.996C342.419 402.836 327.17 395.543 309.932 399.687C307.28 400.184 308.44 404.162 310.927 403.665Z" fill="#2C2353"/>
<path d="M321.867 393.223C332.475 389.908 341.094 395.875 351.37 397.035C354.022 397.366 354.022 393.388 351.37 393.057C340.431 391.565 332.143 385.764 320.872 389.245C318.22 390.073 319.38 394.051 321.867 393.223Z" fill="#2C2353"/>
<path d="M191.751 356.591C183.795 360.735 183.463 370.68 186.447 378.139C187.441 380.46 191.419 379.465 190.425 376.979C188.104 371.343 187.441 363.553 193.906 360.238C196.226 358.912 194.071 355.431 191.751 356.591Z" fill="#2C2353"/>
</svg>
