<svg width="494" height="455" viewBox="0 0 494 455" fill="none" xmlns="http://www.w3.org/2000/svg">
<path d="M494 380.081C494 421.488 383.417 455 247.08 455C110.583 455 0 421.488 0 380.081C0 338.673 110.583 305 247.08 305C383.417 305 494 338.673 494 380.081Z" fill="#3B2F6E"/>
<path d="M380.518 0.00175724C372.952 -0.159232 370.698 10.788 377.781 13.6858C381.645 15.1347 386.314 13.3638 387.763 9.5001C388.568 7.24625 387.924 4.50944 386.636 2.73857C385.187 0.806699 382.933 0.162746 380.518 0.00175724C377.942 0.00175724 377.942 3.86549 380.518 4.02648C383.094 4.02648 385.026 6.28032 383.738 8.69515C382.933 10.466 380.035 10.466 378.747 9.66109C377.62 9.01713 377.298 7.56823 377.459 6.28032C377.781 4.67043 378.908 4.02648 380.518 4.02648C383.094 4.02648 383.094 0.00175724 380.518 0.00175724Z" fill="#2C2353"/>
<path d="M38.5777 100.137C31.0113 99.9756 28.7574 110.762 35.8409 113.66C39.7046 115.269 44.3733 113.499 45.8222 109.474C46.4662 107.381 45.9832 104.644 44.6953 102.873C43.2464 100.941 40.9926 100.137 38.5777 100.137C36.0019 99.9756 36.0019 104 38.5777 104C41.1536 104.161 43.0854 106.254 41.7975 108.83C40.9926 110.44 38.0948 110.601 36.6459 109.796C35.6799 109.152 35.3579 107.542 35.5189 106.415C35.8409 104.805 36.9678 104 38.5777 104C41.1536 104.161 41.1536 100.137 38.5777 100.137Z" fill="#2C2353"/>
<path d="M231.603 98.8489C227.578 98.6879 224.037 101.264 223.393 105.449C222.749 109.313 224.52 113.338 228.222 114.787C232.891 116.719 238.526 114.626 240.136 109.957C242.228 104.001 237.399 99.0099 231.603 98.8489C229.188 98.6879 229.188 102.713 231.603 102.874C235.145 102.874 237.721 105.932 236.111 109.474C234.984 111.889 231.12 112.05 229.027 110.762C227.578 109.957 226.934 107.703 227.256 106.093C227.739 103.84 229.51 102.713 231.603 102.874C234.179 102.874 234.179 98.8489 231.603 98.8489Z" fill="#2C2353"/>
<path d="M462.139 226.674C462.139 235.689 462.139 244.705 462.139 253.72C462.139 256.296 466.163 256.296 466.163 253.72C466.163 244.705 466.163 235.689 466.163 226.674C466.163 224.098 462.139 224.098 462.139 226.674Z" fill="#2C2353"/>
<path d="M450.387 242.129C459.563 242.451 468.739 242.129 477.755 242.129C480.331 242.129 480.331 238.104 477.755 238.104C468.739 238.104 459.563 238.426 450.387 238.104C447.811 237.943 447.972 241.968 450.387 242.129Z" fill="#2C2353"/>
<path d="M453.285 232.148C459.564 238.427 465.842 244.705 472.121 250.984C473.892 252.755 476.789 250.018 474.858 248.247C468.579 241.968 462.461 235.529 456.183 229.25C454.412 227.479 451.514 230.377 453.285 232.148Z" fill="#2C2353"/>
<path d="M456.664 251.306C462.46 244.705 468.094 238.104 474.373 231.826C476.144 230.055 473.246 227.157 471.475 228.928C465.358 235.207 459.562 241.807 453.927 248.408C452.156 250.34 455.054 253.237 456.664 251.306Z" fill="#2C2353"/>
<path d="M454.572 128.471C454.572 128.471 455.055 128.954 455.538 129.759C456.021 130.564 456.665 131.691 457.148 133.14C457.792 134.428 458.275 136.038 458.597 137.809C458.812 138.667 458.973 139.579 459.08 140.545C459.08 141.404 459.134 142.316 459.241 143.282C459.241 144.248 459.187 145.16 459.08 146.019C458.973 146.985 458.865 147.897 458.758 148.756C458.436 150.527 457.792 152.137 457.309 153.585C456.665 155.034 456.021 156.161 455.538 156.966C455.055 157.771 454.572 158.254 454.572 158.254C454.572 158.254 454.25 157.771 453.767 156.966C453.284 156.161 452.641 154.873 452.158 153.585C451.675 152.137 451.192 150.527 451.031 148.917C450.816 147.951 450.655 147.039 450.548 146.18C450.44 145.214 450.387 144.302 450.387 143.443C450.387 142.477 450.44 141.511 450.548 140.545C450.548 139.687 450.655 138.828 450.87 137.97C451.192 136.199 451.675 134.589 452.158 133.14C452.641 131.691 453.284 130.564 453.767 129.759C454.25 128.954 454.572 128.471 454.572 128.471Z" fill="#FFD8A4"/>
<path d="M441.693 143.282C441.693 143.282 442.015 142.96 442.82 142.477C443.464 141.994 444.43 141.35 445.718 140.867C447.006 140.223 448.455 139.74 449.904 139.419C450.655 139.311 451.46 139.204 452.319 139.097C453.177 138.989 453.982 138.936 454.734 138.936C455.592 138.936 456.397 138.989 457.148 139.097C458.007 139.204 458.812 139.311 459.563 139.419C461.173 139.74 462.622 140.223 463.749 140.867C465.037 141.35 466.003 141.994 466.808 142.477C467.452 142.96 467.935 143.282 467.935 143.282C467.935 143.282 467.452 143.765 466.808 144.248C466.003 144.731 465.037 145.375 463.749 145.858C462.622 146.502 461.173 146.824 459.563 147.146C458.812 147.361 458.007 147.522 457.148 147.629C456.397 147.736 455.592 147.79 454.734 147.79C453.982 147.79 453.177 147.736 452.319 147.629C451.46 147.522 450.655 147.361 449.904 147.146C448.455 146.824 447.006 146.341 445.718 145.858C444.43 145.375 443.464 144.731 442.82 144.248C442.015 143.765 441.693 143.282 441.693 143.282Z" fill="#FFD8A4"/>
<path d="M81.7219 14.0079C73.3505 11.593 64.3352 10.1441 56.2857 14.1688C49.3632 17.7106 45.1774 27.3699 46.4653 34.7754C49.8461 53.1281 74.1555 58.4408 84.9417 43.3078C94.762 29.3018 72.7065 17.2276 62.0813 26.887C49.3632 38.1562 73.8335 50.8743 73.6725 34.9364C73.6725 32.3606 69.6478 32.3606 69.6478 34.9364C69.8088 42.8249 56.4467 35.2584 65.623 29.1408C70.2917 26.082 77.5362 27.5309 81.3999 31.0727C85.1027 34.4534 82.6879 39.9271 80.112 42.9858C76.5703 47.1715 71.4187 48.6205 66.267 48.4595C52.261 47.8155 46.9483 32.3606 53.7098 21.7353C59.3444 12.8809 72.3846 15.4568 80.756 17.8716C83.1709 18.5155 84.2978 14.6518 81.7219 14.0079Z" fill="#2C2353"/>
<path d="M325.458 285.918C303.564 286.24 279.899 281.893 259.292 275.132C266.376 301.695 271.044 314.574 276.196 334.698C283.44 362.71 282.635 367.218 325.136 367.218C371.823 367.218 371.018 364.159 378.424 332.444C383.736 309.584 386.312 297.348 392.108 273.039C373.433 281.893 349.929 285.435 325.458 285.918Z" fill="#CF4382"/>
<path d="M259.292 282.055C279.255 292.036 303.081 294.129 324.976 294.612C347.997 295.095 373.916 293.485 394.362 282.055C401.928 277.869 395.167 266.117 387.6 270.302C369.731 280.284 347.031 281.25 327.23 281.089C307.267 280.928 284.407 279.479 266.054 270.302C258.326 266.6 251.404 278.191 259.292 282.055Z" fill="#9B3262"/>
<path d="M261.225 296.061C281.026 304.433 303.887 305.882 324.976 306.365C347.193 306.847 372.146 305.721 392.431 296.061C395.972 294.29 392.914 289.139 389.533 290.91C370.697 299.925 347.676 300.569 327.23 300.408C306.463 300.247 283.441 298.959 264.284 290.91C260.742 289.3 257.683 294.451 261.225 296.061Z" fill="#9B3262"/>
<path d="M277.003 333.088C281.94 328.903 286.877 324.771 291.814 320.692C290.848 320.692 289.882 320.692 288.916 320.692C294.711 326.058 300.453 331.478 306.142 336.952C306.947 337.757 308.235 337.596 309.039 336.952C315.372 331.371 321.704 325.79 328.036 320.209C327.178 320.209 326.265 320.209 325.299 320.209C331.202 325.468 337.105 330.727 343.008 335.986C343.813 336.63 344.94 336.791 345.745 335.986C351.433 330.834 357.068 325.683 362.649 320.531C362.005 321.175 359.751 319.887 362.488 321.819C364.312 323.214 366.191 324.61 368.122 326.005C371.02 328.151 373.918 330.298 376.816 332.444C378.909 333.893 380.84 330.512 378.909 329.064C373.435 325.093 368.015 321.068 362.649 316.989C361.844 316.506 360.878 316.828 360.234 317.311C354.438 322.57 348.696 327.829 343.008 333.088C343.974 333.088 344.886 333.088 345.745 333.088C339.842 327.829 333.939 322.57 328.036 317.311C327.231 316.667 326.104 316.667 325.299 317.311C318.967 322.892 312.581 328.473 306.142 334.054C307.108 334.054 308.074 334.054 309.039 334.054C303.244 328.688 297.502 323.268 291.814 317.794C291.009 316.989 289.882 317.15 288.916 317.794C283.979 321.98 279.042 326.166 274.105 330.351C272.173 331.961 275.071 334.698 277.003 333.088Z" fill="#7665D0"/>
<path d="M307.107 325.683C312.259 325.683 312.259 317.633 307.107 317.633C301.955 317.633 301.955 325.683 307.107 325.683Z" fill="#FFCA5C"/>
<path d="M344.939 325.2C349.93 325.2 349.93 317.15 344.939 317.15C339.787 317.15 339.787 325.2 344.939 325.2Z" fill="#FFCA5C"/>
<path d="M362.488 338.079C367.64 338.079 367.64 330.029 362.488 330.029C357.497 330.029 357.497 338.079 362.488 338.079Z" fill="#FFCA5C"/>
<path d="M326.748 338.079C331.9 338.079 331.9 330.029 326.748 330.029C321.597 330.029 321.597 338.079 326.748 338.079Z" fill="#FFCA5C"/>
<path d="M290.847 339.045C295.999 339.045 295.999 330.996 290.847 330.996C285.695 330.996 285.695 339.045 290.847 339.045Z" fill="#FFCA5C"/>
<path d="M307.266 266.6C250.759 261.448 239.973 180.149 248.827 137.165C266.214 147.307 279.093 158.899 285.694 178.056C279.415 157.772 276.678 134.589 292.455 110.924C292.455 110.924 322.238 135.394 322.721 166.143C324.814 143.283 330.932 117.685 355.402 107.704C355.402 107.704 368.442 139.58 357.817 174.353C361.519 160.186 383.897 144.249 404.986 139.58C404.986 139.58 400.318 183.53 400.318 209.449C400.318 258.551 365.544 280.445 316.926 265.473" fill="#2A9790"/>
<path d="M293.582 238.588C280.381 218.142 254.14 208.161 228.864 207.356C242.065 265.956 263.96 281.089 334.151 281.894C397.741 282.699 413.196 253.399 425.432 206.712C395.971 207.356 387.277 211.864 376.33 216.049" fill="#2A9790"/>
<path d="M374.076 196.247C376.974 187.232 376.169 177.412 364.256 181.276C352.986 184.656 359.426 193.028 364.739 198.662C358.299 194.799 346.547 193.833 348.157 204.78C349.606 213.956 354.435 214.439 365.865 207.678C355.401 216.049 355.401 221.845 363.773 225.225C373.11 228.284 375.525 217.498 373.432 210.414C376.169 218.625 383.413 225.225 390.336 216.21C396.292 209.127 387.76 203.975 378.745 203.653C386.633 203.653 398.546 198.34 390.658 188.842C384.218 181.276 377.779 189.486 374.076 196.247Z" fill="#FFCA5C"/>
<path d="M369.407 196.891C376.812 194.154 380.354 206.229 371.983 207.839C368.441 208.643 365.865 207.034 365.06 203.331C364.577 200.111 366.348 197.857 369.407 196.891Z" fill="#2C2353"/>
<path d="M288.109 217.981C296.158 212.99 301.632 204.78 290.04 200.111C279.093 195.765 278.771 206.229 279.254 213.956C276.839 206.873 268.307 198.823 262.672 208.322C258.004 216.371 261.545 219.752 274.585 221.684C261.223 221.684 257.521 226.192 262.028 233.919C267.341 242.29 275.873 235.529 278.771 228.767C275.712 236.656 277.322 246.476 288.27 243.9C297.446 241.968 294.065 232.631 287.143 226.674C293.26 231.665 305.817 235.046 305.817 222.65C305.495 212.668 295.353 215.083 288.109 217.981Z" fill="#FFCA5C"/>
<path d="M284.244 215.566C291.65 218.142 286.82 229.733 279.254 225.708C276.034 224.099 274.907 221.201 276.839 217.981C278.449 215.083 281.185 214.278 284.244 215.566Z" fill="#2C2353"/>
<path d="M322.561 168.235C330.127 162.601 335.118 154.068 323.044 150.205C311.936 146.663 312.258 157.127 313.385 164.855C310.487 157.932 301.31 150.366 296.32 160.347C292.456 168.718 296.159 171.777 309.199 172.904C295.998 173.87 292.617 178.539 297.447 185.944C303.403 193.833 311.453 186.427 313.867 179.505C311.453 187.715 313.706 197.374 324.493 193.994C333.347 191.418 329.483 182.402 322.239 176.929C328.678 181.437 341.397 183.851 340.431 171.616C339.465 161.635 329.483 164.694 322.561 168.235Z" fill="white"/>
<path d="M318.374 165.982C325.941 168.075 322.077 179.988 314.188 176.446C310.808 174.997 309.52 172.26 311.13 168.88C312.578 165.982 315.315 165.016 318.374 165.982Z" fill="#2C2353"/>
<path d="M339.947 238.91C344.937 230.861 346.547 221.201 333.99 222.006C322.399 222.65 326.423 232.309 330.287 239.071C324.975 233.597 313.705 230.056 312.739 241.003C312.095 250.179 316.603 251.789 329.16 248.086C317.247 253.721 315.798 259.356 323.043 264.507C331.414 269.82 336.244 259.839 335.922 252.594C336.727 261.126 342.2 269.337 351.055 262.253C358.46 256.619 351.538 249.696 342.844 247.12C350.411 249.052 363.29 246.798 357.816 235.529C353.309 226.675 345.259 233.275 339.947 238.91Z" fill="white"/>
<path d="M335.278 238.427C343.167 237.461 343.811 250.018 335.117 249.696C331.576 249.535 329.322 247.442 329.644 243.74C329.805 240.359 332.059 238.588 335.278 238.427Z" fill="#2C2353"/>
<path d="M253.979 160.025C253.979 170.811 254.302 181.437 257.843 191.74C258.648 194.155 262.512 193.028 261.707 190.613C258.165 180.632 258.004 170.489 258.004 160.025C258.004 157.449 253.979 157.449 253.979 160.025Z" fill="#2C2353"/>
<path d="M262.028 165.338C262.189 171.617 262.35 178.539 264.604 184.496C265.409 186.911 269.273 185.784 268.468 183.369C266.214 177.734 266.053 171.295 266.053 165.338C266.053 162.762 262.028 162.762 262.028 165.338Z" fill="#2C2353"/>
<path d="M403.538 228.445C402.734 241.324 395.167 253.076 383.093 258.067C380.678 259.033 381.805 262.897 384.059 261.931C397.904 256.135 406.597 243.256 407.563 228.445C407.724 225.869 403.699 225.869 403.538 228.445Z" fill="#2C2353"/>
<path d="M393.557 232.309C392.43 240.68 386.474 246.315 379.712 250.662C377.619 251.949 379.551 255.491 381.805 254.042C389.855 248.891 396.294 242.129 397.582 232.309C397.904 229.733 393.879 229.733 393.557 232.309Z" fill="#2C2353"/>
<path d="M314.671 213.795C322.398 213.795 322.398 201.882 314.671 201.882C307.104 201.882 307.104 213.795 314.671 213.795Z" fill="#E187AF"/>
<path d="M365.383 266.439C373.111 266.439 373.111 254.526 365.383 254.526C357.656 254.526 357.656 266.439 365.383 266.439Z" fill="#E187AF"/>
<path d="M346.226 156.001C352.665 156.001 352.665 146.02 346.226 146.02C339.947 146.02 339.947 156.001 346.226 156.001Z" fill="#E187AF"/>
<path d="M272.653 259.678C279.092 259.678 279.092 249.696 272.653 249.696C266.213 249.696 266.213 259.678 272.653 259.678Z" fill="#E187AF"/>
<path d="M384.541 177.896C389.693 177.896 389.693 170.007 384.541 170.007C379.39 170.007 379.39 177.896 384.541 177.896Z" fill="#E187AF"/>
<path d="M338.175 213.796C343.327 213.796 343.327 205.746 338.175 205.746C333.024 205.746 333.024 213.796 338.175 213.796Z" fill="#E187AF"/>
<path d="M304.691 265.956C309.843 265.795 309.843 257.907 304.691 257.907C299.539 257.907 299.539 265.795 304.691 265.795V265.956Z" fill="#E187AF"/>
<path d="M298.573 147.307C303.563 147.307 303.563 139.419 298.573 139.419C293.421 139.419 293.421 147.307 298.573 147.307Z" fill="#E187AF"/>
<path d="M353.312 304.753C355.726 324.394 358.946 352.728 363.293 377.359C369.893 414.064 383.094 406.981 415.292 406.981C449.905 406.981 463.911 408.591 469.706 376.715C475.663 344.839 476.468 323.106 477.917 302.66C461.013 288.815 385.831 278.351 353.312 304.753Z" fill="#7665D0"/>
<path d="M366.995 323.267C368.927 337.273 371.503 357.396 374.884 374.783C380.035 400.702 390.338 395.712 415.453 395.712C442.338 395.712 453.285 396.839 457.793 374.3C462.3 351.762 462.944 336.307 464.071 321.979C450.87 311.998 392.431 304.592 366.995 323.267Z" fill="#FFCA5C"/>
<path d="M398.87 300.085C405.095 312.427 411.374 324.77 417.706 337.112C419.96 341.781 426.882 337.595 424.467 333.087C418.243 320.745 412.018 308.402 405.793 296.06C403.378 291.552 396.616 295.577 398.87 300.085Z" fill="#80461D"/>
<path d="M384.866 352.084C390.017 352.084 390.017 344.035 384.866 344.035C379.714 344.035 379.714 352.084 384.866 352.084Z" fill="white"/>
<path d="M413.36 385.409C418.511 385.409 418.511 377.521 413.36 377.521C408.208 377.521 408.208 385.409 413.36 385.409Z" fill="white"/>
<path d="M445.88 351.601C451.032 351.601 451.032 343.551 445.88 343.551C440.729 343.551 440.729 351.601 445.88 351.601Z" fill="white"/>
<path d="M429.781 361.099C433.644 361.099 433.644 355.143 429.781 355.143C425.917 355.143 425.917 361.099 429.781 361.099Z" fill="white"/>
<path d="M397.744 368.505C401.608 368.505 401.608 362.548 397.744 362.548C393.881 362.548 393.881 368.505 397.744 368.505Z" fill="white"/>
<path d="M390.016 327.614C392.431 327.614 392.431 323.589 390.016 323.589C387.44 323.589 387.44 327.614 390.016 327.614Z" fill="#AB5D26"/>
<path d="M440.405 323.911C442.981 323.911 442.981 319.887 440.405 319.887C437.83 319.887 437.83 323.911 440.405 323.911Z" fill="#AB5D26"/>
<path d="M401.93 332.604C404.345 332.604 404.345 328.58 401.93 328.58C399.354 328.58 399.354 332.604 401.93 332.604Z" fill="#AB5D26"/>
<path d="M425.273 320.208C427.849 320.208 427.849 316.345 425.273 316.345C422.697 316.345 422.697 320.208 425.273 320.208Z" fill="#AB5D26"/>
<path d="M433.484 330.351C436.059 330.351 436.059 326.327 433.484 326.327C430.908 326.327 430.908 330.351 433.484 330.351Z" fill="#AB5D26"/>
<path d="M399.998 322.623C402.574 322.623 402.574 318.599 399.998 318.599C397.422 318.599 397.422 322.623 399.998 322.623Z" fill="#AB5D26"/>
<path d="M410.14 357.88C412.716 357.88 412.716 353.855 410.14 353.855C407.564 353.855 407.564 357.88 410.14 357.88Z" fill="#AB5D26"/>
<path d="M445.397 375.267C447.973 375.267 447.973 371.242 445.397 371.242C442.821 371.242 442.821 375.267 445.397 375.267Z" fill="#AB5D26"/>
<path d="M393.558 384.926C396.134 384.926 396.134 380.901 393.558 380.901C390.982 380.901 390.982 384.926 393.558 384.926Z" fill="#AB5D26"/>
<path d="M431.23 388.468C433.806 388.468 433.806 384.604 431.23 384.604C428.654 384.604 428.654 388.468 431.23 388.468Z" fill="#AB5D26"/>
<path d="M382.611 367.056C385.186 367.056 385.186 363.032 382.611 363.032C380.035 363.032 380.035 367.056 382.611 367.056Z" fill="#AB5D26"/>
<path d="M420.605 368.827C423.181 368.827 423.181 364.802 420.605 364.802C418.029 364.802 418.029 368.827 420.605 368.827Z" fill="#AB5D26"/>
<path d="M360.557 320.369C374.885 335.663 390.661 339.848 411.107 339.848C422.054 339.848 433.001 339.687 443.627 336.789C454.091 333.892 463.106 327.613 470.995 320.369C472.927 318.598 470.19 315.861 468.258 317.632C451.837 332.443 434.611 335.663 413.2 335.824C404.667 335.824 396.296 335.824 387.925 333.731C378.104 331.316 370.216 324.876 363.454 317.632C361.683 315.7 358.786 318.598 360.557 320.369Z" fill="#2C2353"/>
<path d="M400.481 347.254C410.784 349.186 421.41 349.83 431.713 347.254C434.128 346.61 433.162 342.747 430.586 343.39C421.088 345.805 411.106 345.161 401.447 343.39C399.032 342.907 397.905 346.771 400.481 347.254Z" fill="#2C2353"/>
<path d="M426.077 300.084C437.83 300.245 449.421 301.05 460.368 305.879C462.783 306.845 464.715 303.304 462.461 302.338C450.87 297.347 438.635 296.22 426.077 296.059C423.502 296.059 423.502 300.084 426.077 300.084Z" fill="#2C2353"/>
<path d="M78.8248 345.806C3.80398 342.586 15.5562 414.387 63.5308 419.217C122.453 424.851 155.777 423.724 198.6 422.275C227.256 421.31 288.11 421.632 296.643 390.4C307.429 350.313 271.528 343.23 242.872 342.103" fill="#E187AF"/>
<path d="M87.6781 353.05C69.9693 352.728 33.9077 357.397 37.6105 383.316C41.6352 410.845 76.7308 410.684 97.3374 411.811C133.882 413.743 170.426 412.616 206.971 411.489C222.426 410.845 238.042 409.879 253.175 406.659C264.122 404.244 277.162 399.898 283.118 389.433C288.753 379.613 286.982 365.929 277.484 359.167C265.41 350.635 248.828 349.83 234.5 349.347C231.924 349.347 231.924 353.372 234.5 353.372C248.828 353.694 270.722 354.016 279.738 367.217C284.245 373.656 282.314 383.638 278.289 389.594C274.264 395.873 265.732 398.771 259.131 401.025C243.515 405.854 226.611 406.659 210.513 407.303C194.092 407.947 177.724 408.43 161.411 408.752C141.878 409.181 122.291 408.967 102.65 408.108C86.0682 407.303 66.5885 408.913 52.2605 398.932C43.8891 393.297 38.7374 382.672 43.2451 373.013C49.3627 359.972 68.0374 357.558 80.4336 357.075C82.8484 356.914 85.2632 356.914 87.6781 357.075C90.2539 357.075 90.2539 353.05 87.6781 353.05Z" fill="#CF4382"/>
<path d="M61.7588 314.413C63.8516 373.496 61.9198 375.428 78.6626 389.112C97.6593 404.889 144.507 400.703 167.046 401.991C187.491 401.347 232.89 403.44 248.828 388.629C264.766 375.75 260.419 348.382 259.131 311.837" fill="#AB5D26"/>
<path d="M160.446 265.794C104.583 265.15 61.5986 265.472 58.5398 308.134C55.159 356.109 125.994 352.245 154.489 351.279C181.052 350.474 261.547 356.431 262.191 313.447C262.835 272.556 223.714 263.379 160.446 265.794Z" fill="#FF8933"/>
<path d="M160.124 287.367C136.781 287.045 118.75 287.367 117.462 305.237C116.013 325.36 145.796 323.75 157.709 323.267C168.818 322.945 202.625 325.521 202.947 307.49C203.269 290.265 186.687 286.401 160.124 287.367Z" fill="#AB5D26"/>
<path d="M91.2212 291.231C96.2118 291.231 96.2118 283.181 91.2212 283.181C86.0695 283.181 86.0695 291.231 91.2212 291.231Z" fill="#AB5D26"/>
<path d="M231.925 316.184C236.916 316.184 236.916 308.295 231.925 308.295C226.774 308.295 226.774 316.184 231.925 316.184Z" fill="#AB5D26"/>
<path d="M79.4678 308.295C87.1953 308.295 87.1953 296.221 79.4678 296.221C71.9014 296.221 71.9014 308.295 79.4678 308.295Z" fill="#AB5D26"/>
<path d="M243.516 303.143C251.244 303.143 251.244 291.23 243.516 291.23C235.789 291.23 235.789 303.143 243.516 303.143Z" fill="#AB5D26"/>
<path d="M98.6256 304.11C105.065 304.11 105.065 294.128 98.6256 294.128C92.186 294.128 92.186 304.11 98.6256 304.11Z" fill="#AB5D26"/>
<path d="M249.633 320.691C256.073 320.691 256.073 310.71 249.633 310.71C243.194 310.71 243.194 320.691 249.633 320.691Z" fill="#AB5D26"/>
<path d="M188.297 282.376C194.737 282.376 194.737 272.395 188.297 272.395C181.858 272.395 181.858 282.376 188.297 282.376Z" fill="#AB5D26"/>
<path d="M127.604 340.493C134.044 340.493 134.044 330.512 127.604 330.512C121.165 330.512 121.165 340.493 127.604 340.493Z" fill="#AB5D26"/>
<path d="M203.59 287.367C208.742 287.367 208.742 279.479 203.59 279.479C198.439 279.479 198.439 287.367 203.59 287.367Z" fill="#AB5D26"/>
<path d="M142.253 338.4C147.405 338.4 147.405 330.512 142.253 330.512C137.102 330.512 137.102 338.4 142.253 338.4Z" fill="#AB5D26"/>
<path d="M134.206 281.732C139.357 281.732 139.357 273.683 134.206 273.683C129.054 273.683 129.054 281.732 134.206 281.732Z" fill="#AB5D26"/>
<path d="M121.809 286.079C125.673 286.079 125.673 280.122 121.809 280.122C117.945 280.122 117.945 286.079 121.809 286.079Z" fill="#AB5D26"/>
<path d="M155.617 344.518C159.48 344.518 159.48 338.561 155.617 338.561C151.753 338.561 151.753 344.518 155.617 344.518Z" fill="#AB5D26"/>
<path d="M226.451 302.821C230.314 302.821 230.314 296.865 226.451 296.865C222.587 296.865 222.587 302.821 226.451 302.821Z" fill="#AB5D26"/>
<path d="M92.1869 319.403C96.0506 319.403 96.0506 313.447 92.1869 313.447C88.3231 313.447 88.3231 319.403 92.1869 319.403Z" fill="#AB5D26"/>
<path d="M160.447 324.233C172.199 324.877 183.468 325.038 194.254 319.886C202.787 315.862 204.396 308.295 204.718 299.602C204.718 297.026 200.694 297.026 200.694 299.602C200.372 309.261 197.957 314.574 188.459 318.116C179.604 321.496 169.784 320.852 160.447 320.208C157.871 320.047 157.871 324.072 160.447 324.233Z" fill="#2C2353"/>
<path d="M183.95 331.477C194.415 331.477 210.836 325.682 211.641 313.446C211.802 311.032 207.938 311.032 207.616 313.446C206.972 323.106 191.839 327.613 183.95 327.613C181.375 327.613 181.375 331.477 183.95 331.477Z" fill="#2C2353"/>
<path d="M89.932 384.604C100.879 393.62 114.885 394.425 128.569 393.459C130.984 393.298 131.145 389.273 128.569 389.434C116.012 390.4 102.811 390.078 92.8299 381.707C90.7371 380.097 88.0002 382.994 89.932 384.604Z" fill="#2C2353"/>
<path d="M99.7531 379.774C106.998 383.638 114.564 385.087 122.614 384.926C125.189 384.765 125.189 380.74 122.614 380.901C115.208 381.062 108.447 379.935 101.846 376.394C99.5921 375.106 97.4993 378.486 99.7531 379.774Z" fill="#2C2353"/>
<path d="M248.829 353.372C243.838 355.465 240.457 359.167 237.399 363.514C234.179 368.183 231.281 375.105 224.68 375.105C216.309 375.266 208.421 365.285 201.337 361.582C194.414 357.879 185.238 358.362 178.155 361.26C170.91 364.319 165.919 371.564 159.48 375.91C145.474 385.409 135.654 374.783 125.35 366.09C119.394 361.099 111.666 358.362 103.778 358.845C100.075 359.167 96.5333 360.777 93.3135 362.548C87.8399 365.285 78.9855 376.554 74.9608 364.641C73.9948 362.226 70.1312 363.192 71.0971 365.768C73.1899 372.046 78.6635 375.427 85.103 373.173C88.9668 371.885 92.1866 368.344 95.2454 365.929C102.49 360.455 112.149 362.87 119.394 366.734C128.409 371.564 132.917 380.74 143.381 383.316C152.557 385.57 161.412 379.935 168.012 374.461C172.198 370.759 175.579 366.573 180.891 364.48C187.331 361.743 195.058 362.709 201.176 365.929C208.582 369.954 214.538 378.003 223.392 378.969C237.077 380.418 239.813 361.421 250.761 356.753C253.175 355.787 251.244 352.245 248.829 353.372Z" fill="#80461D"/>
<path d="M127.281 307.49C127.764 294.289 159.801 297.669 168.173 297.83C170.748 297.991 170.748 293.967 168.173 293.967C157.225 293.484 124.062 289.942 123.257 307.49C123.096 310.066 127.12 310.066 127.281 307.49Z" fill="#80461D"/>
</svg>
