<svg width="586" height="97" viewBox="0 0 586 97" fill="none" xmlns="http://www.w3.org/2000/svg">
<path d="M1.34118 -17.7867C76.2232 45.018 178.296 66.3981 273.826 67.8712C369.825 69.3446 472.395 50.6861 555.318 0.637907C565.625 -5.67669 575.464 -12.4599 584.835 -19.9459C587.647 -22.2854 583.669 -26.2687 580.624 -24.1636C503.781 36.4255 398.165 58.5941 302.397 61.8038C202.414 65.2446 92.144 46.6684 11.8769 -16.6084C9.69279 -18.3271 7.50867 -20.0457 5.32453 -21.7643C2.51645 -24.1078 -1.46691 -20.1302 1.34118 -17.7867Z" fill="#2C2353"/>
<path d="M295.369 66.2477C274.765 65.2964 275.209 98.0772 297.689 95.7518C307.056 94.8219 312.445 88.9721 311.047 79.1369C310.117 70.707 303.798 66.2537 295.369 66.2477Z" fill="#CF4382"/>
<path d="M226.531 63.6232C205.927 62.4378 206.138 95.4526 228.618 93.1272C237.984 92.1973 243.608 86.3476 242.21 76.5125C241.045 67.8482 234.961 63.6293 226.531 63.6232Z" fill="#FF8933"/>
<path d="M155.358 53.5041C134.754 52.5528 135.199 85.3336 157.444 83.008C166.811 82.0781 172.435 76.2284 171.037 66.3933C169.872 57.9632 163.788 53.5101 155.358 53.5041Z" fill="#2A9790"/>
<path d="M86.7677 33.7868C66.1636 32.6014 66.3742 65.6162 88.8539 63.2908C98.2204 62.3609 103.61 56.511 102.446 46.6761C101.282 38.0118 95.1969 33.7928 86.7677 33.7868Z" fill="#E187AF"/>
<path d="M363.743 60.9113C343.139 59.7258 343.584 92.7408 365.829 90.4152C375.43 89.4855 380.819 83.6357 379.422 73.8005C378.491 65.1364 372.172 60.9173 363.743 60.9113Z" fill="white"/>
<path d="M433.059 48.5509C412.455 47.3655 412.9 80.3804 435.38 78.055C444.746 77.1251 450.136 71.2753 448.972 61.4403C447.807 52.7761 441.488 48.5569 433.059 48.5509Z" fill="#FFCA5C"/>
<path d="M498.635 28.4612C477.797 27.2756 478.242 60.2906 500.722 57.9651C510.088 57.0352 515.478 51.1854 514.314 41.3504C513.149 32.6862 507.064 28.4672 498.635 28.4612Z" fill="#7665D0"/>
</svg>
