<svg width="465" height="262" viewBox="0 0 465 262" fill="none" xmlns="http://www.w3.org/2000/svg">
<path fill-rule="evenodd" clip-rule="evenodd" d="M41.1692 120.862C34.4 120.862 28.0615 119.508 22.1538 116.8C16.2462 114.215 11.3846 110.031 7.56919 104.246C3.63072 98.4616 1.16919 91.0154 0.18457 81.9077C0.18457 80.8 0.123077 79.6308 0 78.4C0 77.2923 0 76.1846 0 75.0769C0 67.9385 1.04618 60.8 3.13848 53.6616C5.35387 46.5231 8.49229 39.7539 12.5538 33.3539C16.4923 27.0769 21.1692 21.4769 26.5845 16.5539C32.123 11.6308 38.1539 7.75386 44.6769 4.9231C51.3231 2.09233 58.3384 0.676941 65.723 0.676941H68.123C71.9384 0.800018 75.5077 1.47694 78.8308 2.70771C82.2769 4.06156 85.0462 6.09233 87.1385 8.80002C89.2308 11.5077 90.2769 15.2 90.2769 19.8769C90.2769 25.1692 88.7384 30.3385 85.6615 35.3846C82.5845 40.3077 78.4616 44.8 73.2923 48.8616C68.1231 52.9231 62.3999 56.1846 56.123 58.6462C49.9692 60.9846 43.7538 62.1539 37.4769 62.1539C36.9846 62.1539 36.5538 62.1539 36.1846 62.1539C35.6923 62.0308 35.2 61.9693 34.7077 61.9693C33.2307 61.9693 32.1846 61.4769 31.5692 60.4923C31.0769 59.5077 30.8308 58.7077 30.8308 58.0923C37.6 58.0923 44.2462 56.9846 50.7692 54.7692C57.4154 52.6769 63.323 49.4154 68.4923 44.9846C73.9076 40.5539 78.0922 34.8308 81.0461 27.8154C82.523 24.1231 83.2615 20.8 83.2615 17.8462C83.2615 14.7692 82.2769 12.1846 80.3077 10.0923C78.4615 8.00002 75.323 6.83079 70.8922 6.58463H69.7846C65.4769 6.58463 60.8 7.8154 55.7539 10.2769C50.7077 12.6154 45.723 16 40.8 20.4308C35.8769 24.8616 31.3846 30.0308 27.3231 35.9385C23.3846 41.9692 20.1846 48.6769 17.723 56.0616C15.1384 63.3231 13.8462 71.0769 13.8462 79.3231V80.8C13.8462 89.2923 15.1384 96.0616 17.723 101.108C20.4307 106.031 23.9999 109.538 28.4307 111.631C32.8615 113.846 37.7231 114.954 43.0154 114.954C43.8769 114.954 44.6769 114.954 45.4153 114.954C46.2769 114.954 47.0769 114.892 47.8153 114.769C53.2307 114.277 58.5846 112.677 63.8769 109.969C69.2923 107.138 74.2769 103.692 78.8308 99.6308C83.5077 95.5693 87.323 91.1385 90.2769 86.3385C93.3538 81.5385 95.1999 76.8 95.8153 72.1231C95.9384 71.6308 96.2461 71.3846 96.7384 71.3846C97.1076 71.3846 97.5384 71.5692 98.0307 71.9385C98.4 72.1846 98.5845 72.5539 98.5845 73.0462V73.2308C98.5845 78.0308 97.6 82.4616 95.6307 86.5231C93.6615 90.5846 91.3846 94.3385 88.8 97.7846C84 104.185 77.7846 109.354 70.1538 113.292C62.6462 117.231 54.9538 119.631 47.0769 120.492C46.0923 120.615 45.1076 120.738 44.123 120.862C43.1384 120.862 42.1538 120.862 41.1692 120.862ZM120.185 116.431C116.492 116.431 113.477 115.446 111.138 113.477C108.923 111.508 107.138 108.985 105.785 105.908C104.677 102.831 103.877 99.4462 103.385 95.7539C102.892 92.0615 102.646 88.4308 102.646 84.8616C102.646 82.1539 102.769 79.6923 103.015 77.4769C103.262 75.1385 103.385 73.1077 103.385 71.3846C104 66.8308 105.231 62.3385 107.077 57.9077C108.8 53.2308 111.446 49.4154 115.015 46.4616C118.585 43.3846 123.261 41.8462 129.046 41.8462C134.092 41.8462 137.723 43.8769 139.938 47.9385C142.154 52 143.508 56.8 144 62.3385C145.846 63.6923 147.508 64.3692 148.985 64.3692C150.831 64.3692 152.615 63.3846 154.338 61.4154C156.061 59.4462 157.538 56.2462 158.769 51.8154C157.415 50.3385 156.308 48.6769 155.446 46.8308C154.708 44.7385 154.338 42.7692 154.338 40.9231C154.338 38.5846 154.831 36.6154 155.815 35.0154C156.8 33.2923 158.338 32.4308 160.431 32.4308C160.554 32.4308 160.677 32.4923 160.8 32.6154C161.046 32.6154 161.292 32.6154 161.538 32.6154C162.892 32.8616 163.815 33.6616 164.308 35.0154C164.923 36.3692 165.231 37.9693 165.231 39.8154C165.231 42.2769 164.861 44.8616 164.123 47.5692C163.631 50.1539 163.2 52.0616 162.831 53.2923C162.585 53.6616 162.462 53.9692 162.462 54.2154C162.954 54.3385 163.446 54.4 163.938 54.4C164.431 54.4 164.923 54.4 165.415 54.4C168.369 54.4 170.462 53.7846 171.692 52.5539C172.554 51.6923 173.477 50.5231 174.462 49.0462C175.692 47.4462 177.477 46.6462 179.815 46.6462C181.661 46.6462 183.692 47.2 185.908 48.3077C185.538 49.0462 185.108 50.0308 184.615 51.2616C184.123 52.4923 183.508 54.0308 182.769 55.8769C181.169 60.8 179.754 66.2769 178.523 72.3077C177.292 78.3385 176.554 84.4923 176.308 90.7692V93.7231C176.308 95.6923 176.431 98.0308 176.677 100.738C177.046 103.323 177.662 105.6 178.523 107.569C179.508 109.415 180.923 110.462 182.769 110.708H183.508C185.6 110.708 187.323 110.092 188.677 108.862C189.908 107.385 190.954 105.846 191.815 104.246C192.677 102.646 193.415 100.8 194.031 98.7077C194.277 98.0923 194.523 97.4154 194.769 96.6769C195.877 92.9846 196.861 88.9846 197.723 84.6769C198.954 78.7692 199.877 73.1077 200.492 67.6923C201.108 62.2769 201.415 57.7231 201.415 54.0308V52.1846C198.831 51.0769 196.861 49.3539 195.508 47.0154C194.4 44.8 193.846 42.7077 193.846 40.7385C193.846 39.1385 194.092 37.7846 194.585 36.6769C195.2 35.4462 196.123 34.8308 197.354 34.8308H197.723C199.2 34.8308 200.492 35.9385 201.6 38.1539C202.831 40.1231 203.815 42.4 204.554 44.9846C205.292 47.4462 205.661 49.4154 205.661 50.8923C207.015 51.8769 208.431 52.6154 209.908 53.1077C211.508 53.4769 212.861 53.6616 213.969 53.6616C215.323 53.6616 216.185 53.4769 216.554 53.1077C217.415 52.2462 218.462 51.0154 219.692 49.4154C220.923 47.8154 222.892 47.0154 225.6 47.0154C227.446 47.0154 229.662 47.5077 232.246 48.4923C230.892 51.2 229.723 54.2769 228.738 57.7231C227.631 61.0462 226.708 64.5539 225.969 68.2462C225.846 69.1077 225.538 70.8308 225.046 73.4154C224.677 76 224.308 78.9539 223.938 82.2769C223.692 85.6 223.569 88.9231 223.569 92.2462C223.569 96.9231 224.061 101.108 225.046 104.8C226.031 108.369 227.938 110.154 230.769 110.154C232.492 110.154 233.969 109.415 235.2 107.938C236.554 106.585 237.723 104.923 238.708 102.954C239.569 100.738 240.369 98.6462 241.108 96.6769C241.723 94.7077 242.154 93.1077 242.4 91.8769C242.523 91.3846 242.708 91.0154 242.954 90.7692V87.6308C242.954 82.4616 243.508 77.2923 244.615 72.1231C245.723 67.0769 247.508 62.4 249.969 58.0923C252.308 53.7846 255.262 50.3385 258.831 47.7539C262.523 45.0462 266.892 43.6923 271.938 43.6923H273.046C276 43.8154 278.154 44.9231 279.508 47.0154C280.861 49.2308 281.538 51.5692 281.538 54.0308V54.5846C281.538 60.3693 280.185 65.4154 277.477 69.7231C274.892 73.9077 271.631 77.2923 267.692 79.8769C263.754 82.4616 259.631 84.2462 255.323 85.2308V85.9693C255.323 88.6769 255.569 91.5692 256.062 94.6462C256.431 97.7231 257.231 100.615 258.462 103.323C259.569 106.154 261.231 108.492 263.446 110.338C265.538 112.062 268.246 112.923 271.569 112.923C275.631 112.923 279.077 111.631 281.908 109.046C284.615 106.462 286.769 103.385 288.369 99.8154C288.985 98.3385 289.477 96.6769 289.846 94.8308C290.092 94.3385 290.277 93.7846 290.4 93.1693C289.908 89.6 289.661 85.9077 289.661 82.0923C289.661 77.5385 289.908 73.1077 290.4 68.8C290.892 64.3692 291.446 60.5539 292.062 57.3539C292.923 54.0308 293.661 51.6923 294.277 50.3385C294.892 48.9846 295.877 47.8154 297.231 46.8308C298.831 45.6 300.862 44.9846 303.323 44.9846C304.677 44.9846 306.031 45.1692 307.385 45.5385C306.277 49.2308 304.985 54.4 303.508 61.0462C302.031 67.6923 301.292 75.0154 301.292 83.0154C301.292 85.8462 301.354 88.8616 301.477 92.0616C301.6 95.1385 301.846 98.0923 302.215 100.923C302.708 103.631 303.385 105.846 304.246 107.569C305.231 109.292 306.462 110.154 307.938 110.154H308.123C308.985 110.154 309.846 109.723 310.708 108.862C311.815 108 312.985 106.4 314.215 104.062C315.692 100.985 317.108 97.1077 318.462 92.4308C318.338 89.8462 318.277 87.3231 318.277 84.8616C318.277 82.1539 318.338 79.6923 318.462 77.4769C318.708 75.1385 318.892 73.1077 319.015 71.3846C319.508 66.8308 320.677 62.3385 322.523 57.9077C324.369 53.2308 327.077 49.4154 330.646 46.4616C334.092 43.3846 338.708 41.8462 344.492 41.8462C348.554 41.8462 351.692 43.2 353.908 45.9077C356.123 48.3692 357.662 51.6923 358.523 55.8769C359.385 59.9385 359.815 64.3077 359.815 68.9846C359.815 70.2154 359.754 71.5077 359.631 72.8616C359.631 74.0923 359.569 75.3846 359.446 76.7385C362.154 79.6923 365.415 81.1692 369.231 81.1692C372.062 81.1692 374.892 80.1231 377.723 78.0308C378.338 77.4154 378.892 77.1077 379.385 77.1077C379.877 77.1077 380.123 77.4154 380.123 78.0308C380.123 78.8923 379.815 79.5077 379.2 79.8769C377.477 81.4769 375.692 82.6462 373.846 83.3846C371.877 84.1231 369.908 84.4923 367.938 84.4923C364.615 84.4923 361.6 83.5692 358.892 81.7231C358.646 83.6923 358.338 85.6 357.969 87.4462C357.6 89.1692 357.231 90.6462 356.862 91.8769C356 95.2 354.585 98.8308 352.615 102.769C350.769 106.462 348.431 109.662 345.6 112.369C342.769 115.077 339.446 116.431 335.631 116.431C332.062 116.431 329.108 115.446 326.769 113.477C324.431 111.508 322.646 108.985 321.415 105.908C320.677 103.938 320.061 101.785 319.569 99.4462C319.2 100.431 318.831 101.477 318.462 102.585C317.231 106.154 315.446 109.169 313.108 111.631C310.769 114.215 308 115.508 304.8 115.508C300.985 115.508 297.969 113.908 295.754 110.708C293.908 107.877 292.492 104.431 291.508 100.369C291.261 100.862 291.077 101.354 290.954 101.846C288.738 107.508 285.846 111.631 282.277 114.215C278.954 116.677 274.277 117.908 268.246 117.908C262.954 117.908 258.462 116.677 254.769 114.215C251.077 111.631 248.246 108.308 246.277 104.246C245.415 102.4 244.677 100.554 244.062 98.7077C243.692 101.292 242.954 103.569 241.846 105.538C240.123 108.862 237.846 111.385 235.015 113.108C232.308 114.708 229.415 115.508 226.338 115.508C222.769 115.508 219.938 114.4 217.846 112.185C215.877 109.846 214.462 106.831 213.6 103.138C212.862 99.4462 212.492 95.4462 212.492 91.1385C212.492 86.5846 212.738 82.0923 213.231 77.6616C213.846 73.1077 214.462 69.1077 215.077 65.6616C215.938 62.3385 216.492 60 216.738 58.6462C213.785 58.4 211.446 57.9077 209.723 57.1692C208 56.4308 206.523 55.5693 205.292 54.5846C204.923 59.6308 204.246 65.1077 203.261 71.0154C202.4 76.9231 201.415 82.5846 200.308 88C199.569 91.2 198.831 94.0923 198.092 96.6769C197.846 97.7846 197.6 98.8923 197.354 100C196.738 102.338 195.754 104.554 194.4 106.646L192.369 109.785C190.031 113.231 186.831 115.262 182.769 115.877C182.277 116 181.785 116.062 181.292 116.062C180.8 116.062 180.308 116.062 179.815 116.062C176 116.062 173.046 114.954 170.954 112.738C168.985 110.4 167.569 107.446 166.708 103.877C165.846 100.185 165.415 96.4923 165.415 92.8C165.415 89.9692 165.538 87.3231 165.785 84.8616C166.154 82.2769 166.462 80.0616 166.708 78.2154C167.569 70.2154 168.738 63.5693 170.215 58.2769C168.492 58.5231 166.892 58.6462 165.415 58.6462C164.554 58.6462 163.754 58.5846 163.015 58.4616C162.154 58.3385 161.415 58.2154 160.8 58.0923C159.077 61.5385 157.169 64.0616 155.077 65.6616C152.862 67.0154 150.708 67.6923 148.615 67.6923C147.385 67.6923 145.969 67.4462 144.369 66.9539V68.2462C144.369 72.8 144 77.2923 143.261 81.7231C142.769 85.9077 142.154 89.2923 141.415 91.8769C140.554 95.2 139.138 98.8308 137.169 102.769C135.323 106.462 132.923 109.662 129.969 112.369C127.138 115.077 123.877 116.431 120.185 116.431ZM125.538 107.569C127.754 107.569 129.6 106.462 131.077 104.246C132.677 102.154 134.031 99.6923 135.138 96.8616C136.246 94.1539 136.985 91.8154 137.354 89.8462C137.846 88.2462 138.154 86.1539 138.277 83.5692C138.646 80.9846 138.831 78.3385 138.831 75.6308C138.831 73.2923 138.646 71.0154 138.277 68.8C138.154 66.4616 137.785 64.2462 137.169 62.1539C135.692 61.0462 134.092 59.3846 132.369 57.1692C130.769 54.9539 129.969 52.8 129.969 50.7077C129.969 48.8616 130.892 47.3846 132.738 46.2769C131.631 45.5385 130.585 45.1692 129.6 45.1692C127.754 45.1692 126.031 46.2154 124.431 48.3077C122.954 50.5231 121.723 53.1077 120.738 56.0616C119.754 59.1385 118.954 62.0308 118.338 64.7385C117.723 67.4462 117.354 69.3539 117.231 70.4616C117.108 71.5692 116.985 73.3539 116.862 75.8154C116.615 78.1539 116.492 80.8 116.492 83.7539C116.492 87.4462 116.677 91.0769 117.046 94.6462C117.661 98.3385 118.585 101.415 119.815 103.877C121.169 106.338 123.077 107.569 125.538 107.569ZM255.508 81.3539V81.7231C258.831 80.7385 261.723 79.0154 264.185 76.5539C266.769 73.9692 268.8 70.9539 270.277 67.5077C271.754 64.0616 272.554 60.5539 272.677 56.9846V56.0616C272.677 54.2154 272.369 52.4308 271.754 50.7077C271.138 49.1077 270.092 48.3077 268.615 48.3077H268.431C266.461 48.3077 264.738 49.2308 263.261 51.0769C261.785 52.9231 260.615 55.3231 259.754 58.2769C258.769 61.1077 257.969 64.0616 257.354 67.1385C256.615 70.3385 256.123 73.1692 255.877 75.6308C255.631 78.2154 255.508 80.1231 255.508 81.3539ZM305.908 33.3539C303.938 33.3539 302.154 32.6154 300.554 31.1385C299.077 29.6616 298.338 27.8769 298.338 25.7846C298.338 23.5692 299.077 21.7231 300.554 20.2462C302.154 18.7692 303.938 18.0308 305.908 18.0308C308.123 18.0308 309.969 18.7692 311.446 20.2462C312.923 21.7231 313.661 23.5692 313.661 25.7846C313.661 27.8769 312.923 29.6616 311.446 31.1385C309.969 32.6154 308.123 33.3539 305.908 33.3539ZM340.985 107.569C343.2 107.569 345.108 106.462 346.708 104.246C348.308 102.154 349.6 99.6923 350.585 96.8616C351.692 94.1539 352.492 91.8154 352.985 89.8462C353.231 88.3692 353.477 86.6462 353.723 84.6769C353.969 82.8308 354.154 80.5539 354.277 77.8462C352.677 76.4923 351.385 74.1539 350.4 70.8308C349.415 67.3846 348.923 64.1231 348.923 61.0462C348.923 58.9539 349.169 57.1077 349.661 55.5077C350.277 53.7846 351.077 52.6154 352.062 52C351.446 50.4 350.585 48.9231 349.477 47.5692C348.492 46.0923 347.015 45.3539 345.046 45.3539C343.2 45.3539 341.538 46.4 340.062 48.4923C338.708 50.7077 337.477 53.2923 336.369 56.2462C335.262 59.2 334.4 62.0308 333.785 64.7385C333.292 67.4462 332.985 69.3539 332.862 70.4616C332.738 71.5692 332.554 73.3539 332.308 75.8154C332.062 78.1539 331.938 80.8 331.938 83.7539C331.938 87.4462 332.185 91.0769 332.677 94.6462C333.169 98.3385 334.092 101.415 335.446 103.877C336.677 106.338 338.523 107.569 340.985 107.569Z" fill="white"/>
<path fill-rule="evenodd" clip-rule="evenodd" d="M203.077 172.738C203.077 172.985 202.831 173.662 202.338 174.769C201.723 176 200.861 177.477 199.754 179.2C198.523 180.923 196.923 182.831 194.954 184.923C192.984 187.015 190.523 189.046 187.569 191.015C184.615 192.985 181.046 194.769 176.861 196.369C172.8 197.969 168.123 199.2 162.831 200.062C159.138 200.677 155.323 200.985 151.385 200.985C148.061 200.985 144.738 200.8 141.415 200.431C138.092 199.938 134.954 199.2 132 198.215C128.923 197.231 126.092 196 123.508 194.523C120.8 193.046 118.461 191.262 116.492 189.169C114.646 187.2 113.108 184.923 111.877 182.338C110.892 179.631 110.4 176.615 110.4 173.292C110.4 167.631 111.938 162.708 115.015 158.523C118.215 154.338 123.015 151.077 129.415 148.738C127.077 146.646 125.354 144.369 124.246 141.908C123.138 139.323 122.584 136.677 122.584 133.969C122.584 130.646 123.385 127.569 124.985 124.738C126.585 121.785 128.738 119.323 131.446 117.354C134.154 115.262 137.415 113.6 141.231 112.369C145.046 111.262 149.169 110.708 153.6 110.708C158.154 110.708 162.154 111.138 165.6 112C169.046 112.862 171.938 113.908 174.277 115.138C176.738 116.492 178.708 117.908 180.184 119.385C181.784 120.985 183.015 122.462 183.877 123.815C184.861 125.046 185.538 126.154 185.908 127.138C186.154 128 186.338 128.492 186.461 128.615C186.461 128.862 186.461 129.108 186.461 129.354C186.461 129.846 186.277 130.338 185.908 130.831C185.415 131.323 184.861 131.569 184.246 131.569C183.754 131.569 183.323 131.385 182.954 131.015C182.584 130.769 182.338 130.4 182.215 129.908C182.215 129.785 182.031 129.354 181.661 128.615C181.415 127.877 180.861 126.954 180 125.846C179.261 124.738 178.215 123.569 176.861 122.338C175.508 121.108 173.785 119.938 171.692 118.831C169.6 117.723 167.077 116.8 164.123 116.062C161.169 115.446 157.661 115.138 153.6 115.138C149.169 115.138 145.231 115.692 141.785 116.8C138.461 117.908 135.692 119.385 133.477 121.231C131.385 123.077 129.785 125.108 128.677 127.323C127.569 129.538 127.015 131.754 127.015 133.969C127.015 136.431 127.692 138.831 129.046 141.169C130.277 143.508 132.061 145.477 134.4 147.077C136.492 146.585 138.585 146.154 140.677 145.785C142.646 145.538 144.554 145.354 146.4 145.231C148.246 144.985 149.846 144.862 151.2 144.862C152.8 144.738 154.031 144.677 154.892 144.677C156.615 144.677 158.215 144.8 159.692 145.046C161.169 145.292 162.4 145.662 163.385 146.154C164.492 146.646 165.292 147.323 165.785 148.185C166.4 148.923 166.708 149.785 166.708 150.769C166.708 151.754 166.4 152.615 165.785 153.354C165.292 154.092 164.492 154.769 163.385 155.385C162.4 155.877 161.169 156.308 159.692 156.677C158.215 156.923 156.615 157.046 154.892 157.046C153.046 157.046 151.138 156.923 149.169 156.677C147.323 156.431 145.477 156.123 143.631 155.754C141.785 155.262 140 154.708 138.277 154.092C136.677 153.477 135.138 152.738 133.661 151.877C127.508 153.723 122.831 156.431 119.631 160C116.308 163.569 114.646 167.938 114.646 173.108C114.646 175.938 115.138 178.523 116.123 180.862C117.231 183.077 118.646 185.046 120.369 186.769C122.092 188.492 124.184 189.969 126.646 191.2C128.984 192.431 131.508 193.477 134.215 194.338C136.923 195.077 139.754 195.631 142.708 196C145.661 196.369 148.554 196.554 151.385 196.554C153.354 196.554 155.2 196.492 156.923 196.369C158.646 196.246 160.369 196.062 162.092 195.815C167.015 194.954 171.323 193.785 175.015 192.308C178.831 190.831 182.092 189.169 184.8 187.323C187.508 185.6 189.785 183.815 191.631 181.969C193.354 180 194.769 178.277 195.877 176.8C196.984 175.2 197.784 173.908 198.277 172.923C198.646 171.938 198.831 171.446 198.831 171.446C199.077 170.954 199.385 170.585 199.754 170.338C200.123 170.092 200.554 169.969 201.046 169.969C201.661 169.969 202.154 170.154 202.523 170.523C203.015 171.015 203.261 171.569 203.261 172.185C203.261 172.308 203.2 172.492 203.077 172.738ZM162.277 150.769C162.277 150.4 162.031 150.092 161.538 149.846C161.046 149.723 160.369 149.6 159.508 149.477C158.769 149.231 157.846 149.108 156.738 149.108C155.754 148.985 154.708 148.923 153.6 148.923C151.385 148.923 149.231 149.046 147.138 149.292C145.046 149.415 142.646 149.723 139.938 150.215C142.031 150.954 144.369 151.569 146.954 152.062C149.661 152.431 152.369 152.615 155.077 152.615C157.538 152.615 159.323 152.431 160.431 152.062C161.661 151.692 162.277 151.262 162.277 150.769ZM238.708 188.615C237.846 189.969 236.923 191.323 235.938 192.677C234.831 193.908 233.661 195.077 232.431 196.185C231.323 197.169 230.092 197.969 228.738 198.585C227.384 199.323 225.908 199.692 224.308 199.692C221.969 199.692 220 198.954 218.4 197.477C216.677 196 215.2 194.092 213.969 191.754C212.861 189.415 211.938 186.708 211.2 183.631C210.461 180.677 209.908 177.662 209.538 174.585C209.169 171.385 208.861 168.308 208.615 165.354C208.492 162.4 208.431 159.815 208.431 157.6C208.431 154.277 208.554 150.831 208.8 147.262C209.046 143.815 209.415 140.369 209.908 136.923C210.277 133.6 210.831 130.4 211.569 127.323C212.308 124.369 213.169 121.723 214.154 119.385C215.261 117.169 216.431 115.385 217.661 114.031C219.015 112.677 220.492 112 222.092 112C223.323 112 224.492 112.308 225.6 112.923C226.585 113.538 227.446 114.523 228.184 115.877C228.923 117.231 229.477 119.015 229.846 121.231C230.215 123.446 230.4 126.154 230.4 129.354C230.4 133.292 230.031 137.354 229.292 141.538C228.431 145.723 227.261 149.908 225.785 154.092C224.431 158.4 222.769 162.646 220.8 166.831C218.954 171.015 216.923 175.138 214.708 179.2C215.692 184.123 216.984 188 218.584 190.831C220.308 193.662 222.277 195.077 224.492 195.077C226.092 195.077 227.631 194.462 229.108 193.231C230.584 192 231.938 190.585 233.169 188.985C234.277 187.262 235.323 185.538 236.308 183.815C237.169 181.969 237.908 180.554 238.523 179.569C238.646 179.323 238.769 179.138 238.892 179.015C239.015 178.4 239.138 177.846 239.261 177.354C239.754 175.631 240.492 174.154 241.477 172.923C242.338 171.692 243.385 170.708 244.615 169.969C245.969 169.231 247.385 168.862 248.861 168.862C249.846 168.862 250.769 169.046 251.631 169.415C252.492 169.785 253.292 170.338 254.031 171.077C254.769 171.692 255.323 172.492 255.692 173.477C256.185 174.462 256.431 175.569 256.431 176.8C256.431 178.523 256.123 180.062 255.508 181.415C255.015 182.892 254.277 184.185 253.292 185.292C252.308 186.523 251.138 187.692 249.785 188.8C248.431 189.785 247.015 190.646 245.538 191.385C246.4 192.492 247.446 193.415 248.677 194.154C250.031 194.769 251.631 195.077 253.477 195.077C255.446 195.077 257.169 194.646 258.646 193.785C260.246 192.8 261.723 191.569 263.077 190.092C264.308 188.615 265.415 186.954 266.4 185.108C267.508 183.262 268.431 181.415 269.169 179.569C269.415 179.2 269.723 178.892 270.092 178.646C270.215 178.646 270.277 178.585 270.277 178.462C271.261 176.738 272.431 175.2 273.785 173.846C275.385 172.246 277.108 171.077 278.954 170.338C280.923 169.6 282.831 169.231 284.677 169.231C285.908 169.231 287.015 169.354 288 169.6C288.985 169.969 289.846 170.338 290.584 170.708C291.323 171.077 291.877 171.446 292.246 171.815C292.738 172.185 292.985 172.369 292.985 172.369C293.354 172.862 293.538 173.415 293.538 174.031C293.538 174.646 293.354 175.138 292.985 175.508C292.492 176 292 176.246 291.508 176.246C290.892 176.246 290.338 176 289.846 175.508C289.723 175.508 289.477 175.385 289.108 175.138C288.984 174.892 288.677 174.646 288.184 174.4C287.815 174.154 287.323 173.969 286.708 173.846C286.215 173.723 285.538 173.662 284.677 173.662C283.569 173.662 282.277 173.908 280.8 174.4C279.446 174.892 278.154 175.692 276.923 176.8C275.692 178.031 274.646 179.508 273.785 181.231C273.046 183.077 272.677 185.231 272.677 187.692C272.677 189.538 273.046 191.077 273.785 192.308C274.646 193.415 275.938 193.969 277.661 193.969C278.523 193.969 279.385 193.723 280.246 193.231C281.231 192.862 282.154 192.185 283.015 191.2C283.877 190.215 284.615 188.985 285.231 187.508C285.846 185.908 286.277 184.123 286.523 182.154C286.646 181.538 286.954 181.108 287.446 180.862C287.815 180.369 288.308 180.123 288.923 180.123C289.538 180.123 290.031 180.369 290.4 180.862C290.769 181.354 290.954 181.908 290.954 182.523C290.954 182.523 290.954 183.138 290.954 184.369C290.954 185.477 290.892 187.015 290.769 188.985C290.769 190.831 290.708 193.046 290.584 195.631C290.584 198.092 290.584 200.738 290.584 203.569C297.969 193.969 303.077 185.969 305.908 179.569C306.154 179.2 306.4 178.892 306.646 178.646C306.769 178.646 306.892 178.585 307.015 178.462C307.877 176.738 308.984 175.2 310.338 173.846C311.938 172.246 313.723 171.077 315.692 170.338C317.661 169.6 319.569 169.231 321.415 169.231C322.523 169.231 323.631 169.415 324.738 169.785C325.723 170.031 326.585 170.338 327.323 170.708C328.061 171.2 328.615 171.569 328.985 171.815C329.354 172.185 329.538 172.369 329.538 172.369C330.031 172.862 330.277 173.415 330.277 174.031C330.277 174.646 330.031 175.138 329.538 175.508C329.169 176 328.677 176.246 328.061 176.246C327.446 176.246 326.954 176 326.584 175.508C326.461 175.508 326.277 175.385 326.031 175.138C325.661 174.892 325.292 174.646 324.923 174.4C324.431 174.277 323.815 174.092 323.077 173.846C322.461 173.723 321.784 173.662 321.046 173.662C319.815 173.662 318.523 173.908 317.169 174.4C315.692 175.015 314.4 175.877 313.292 176.985C312.185 178.092 311.261 179.569 310.523 181.415C309.661 183.138 309.231 185.169 309.231 187.508C309.231 188.246 309.354 189.046 309.6 189.908C309.723 190.646 309.969 191.323 310.338 191.938C310.708 192.554 311.261 193.046 312 193.415C312.615 193.785 313.415 193.969 314.4 193.969C315.138 193.969 315.938 193.723 316.8 193.231C317.784 192.862 318.708 192.185 319.569 191.2C320.431 190.215 321.169 188.985 321.785 187.508C322.523 185.908 323.015 184.123 323.261 182.154C323.384 181.538 323.631 181.108 324 180.862C324.492 180.369 324.985 180.123 325.477 180.123C326.092 180.123 326.584 180.369 326.954 180.862C327.446 181.231 327.692 181.723 327.692 182.338C327.692 183.077 327.754 184.123 327.877 185.477C328 186.831 328.246 188.185 328.615 189.538C329.108 190.892 329.784 192.062 330.646 193.046C331.384 194.031 332.492 194.523 333.969 194.523C334.954 194.523 335.877 194.215 336.738 193.6C337.723 193.108 338.646 192.492 339.508 191.754C340.369 190.892 341.169 189.908 341.908 188.8C342.769 187.692 343.569 186.585 344.308 185.477C344.923 184.369 345.477 183.323 345.969 182.338C346.461 181.354 346.892 180.431 347.261 179.569C348.984 175.385 350.646 172.308 352.246 170.338C353.846 168.369 355.385 167.385 356.861 167.385C357.723 167.385 358.523 167.631 359.261 168.123C359.877 168.615 360.308 169.231 360.554 169.969C361.046 170.708 361.354 171.508 361.477 172.369C361.723 173.231 361.846 174.154 361.846 175.138C361.846 175.877 361.784 176.985 361.661 178.462C361.538 179.938 361.415 181.538 361.292 183.262C361.046 184.985 360.861 186.646 360.738 188.246C360.615 189.969 360.492 191.385 360.369 192.492C360.985 191.262 361.723 189.846 362.584 188.246C363.446 186.769 364.308 185.231 365.169 183.631C366.154 182.031 367.138 180.431 368.123 178.831C369.231 177.231 370.338 175.754 371.446 174.4C372.554 173.046 373.723 172.062 374.954 171.446C376.061 170.831 377.108 170.523 378.092 170.523C380.185 170.523 381.723 171.262 382.708 172.738C383.692 174.215 384.184 176.062 384.184 178.277C384.184 178.769 384.123 179.385 384 180.123C384 180.862 383.938 181.6 383.815 182.338C383.815 183.2 383.754 184.062 383.631 184.923C383.631 185.785 383.631 186.585 383.631 187.323C383.631 188.308 383.692 189.231 383.815 190.092C383.938 190.954 384.123 191.692 384.369 192.308C384.615 192.923 384.985 193.415 385.477 193.785C385.969 194.154 386.646 194.338 387.508 194.338C388.984 194.338 390.461 193.785 391.938 192.677C393.292 191.446 394.584 190.092 395.815 188.615C397.046 187.015 398.092 185.354 398.954 183.631C399.692 182.277 400.246 181.108 400.615 180.123C400.492 179.262 400.308 178.338 400.061 177.354C399.323 173.046 398.954 168.308 398.954 163.138C398.954 161.785 398.954 160.246 398.954 158.523C399.077 156.8 399.2 154.954 399.323 152.985C399.446 151.015 399.631 149.046 399.877 147.077C400 144.985 400.308 142.954 400.8 140.985H379.569C378.954 140.985 378.461 140.8 378.092 140.431C377.6 140.062 377.354 139.569 377.354 138.954C377.354 138.338 377.6 137.846 378.092 137.477C378.461 137.108 378.954 136.923 379.569 136.923H401.723C402.092 135.446 402.523 134.154 403.015 133.046C403.631 131.815 404.246 130.769 404.861 129.908C405.6 129.046 406.4 128.369 407.261 127.877C408.123 127.385 409.046 127.138 410.031 127.138C411.015 127.138 411.877 127.385 412.615 127.877C413.354 128.369 413.969 129.046 414.461 129.908C414.954 130.769 415.323 131.815 415.569 133.046C415.938 134.154 416.185 135.446 416.308 136.923H446.4C447.015 136.923 447.569 137.108 448.061 137.477C448.431 137.846 448.615 138.338 448.615 138.954C448.615 139.569 448.431 140.062 448.061 140.431C447.569 140.8 447.015 140.985 446.4 140.985H416.492V141.723C416.492 144.062 416.369 146.585 416.123 149.292C415.754 152 415.261 154.708 414.646 157.415C414.031 160.123 413.292 162.708 412.431 165.169C411.692 167.754 410.954 170.154 410.215 172.369C409.354 174.462 408.554 176.308 407.815 177.908C406.954 179.508 406.215 180.677 405.6 181.415C406.215 183.262 406.831 184.985 407.446 186.585C408.185 188.062 408.985 189.415 409.846 190.646C410.708 191.754 411.692 192.615 412.8 193.231C413.784 193.969 414.892 194.338 416.123 194.338C417.477 194.338 418.769 193.785 420 192.677C421.477 191.446 422.769 190.031 423.877 188.431C424.984 186.831 425.969 185.231 426.831 183.631C427.815 182.031 428.492 180.738 428.861 179.754C428.985 179.262 429.231 178.892 429.6 178.646C429.723 178.154 429.846 177.723 429.969 177.354C430.461 175.631 431.138 174.154 432 172.923C432.985 171.692 434.092 170.708 435.323 169.969C436.677 169.231 438.092 168.862 439.569 168.862C440.431 168.862 441.292 169.046 442.154 169.415C443.138 169.785 443.938 170.338 444.554 171.077C445.292 171.692 445.908 172.492 446.4 173.477C446.769 174.462 446.954 175.569 446.954 176.8C446.954 178.523 446.708 180.062 446.215 181.415C445.6 182.892 444.8 184.185 443.815 185.292C442.954 186.523 441.846 187.692 440.492 188.8C439.138 189.785 437.723 190.646 436.246 191.385C436.985 192.492 438.031 193.415 439.385 194.154C440.615 194.769 442.215 195.077 444.184 195.077C446.031 195.077 447.754 194.646 449.354 193.785C450.954 192.8 452.369 191.569 453.6 190.092C454.954 188.615 456.123 186.954 457.108 185.108C458.092 183.262 459.015 181.415 459.877 179.569C460.123 179.2 460.369 178.892 460.615 178.646C460.985 178.4 461.415 178.277 461.908 178.277C462.523 178.277 463.015 178.523 463.385 179.015C463.877 179.508 464.123 180 464.123 180.492C464.123 180.738 464.123 180.923 464.123 181.046C464 181.169 463.938 181.292 463.938 181.415C461.231 187.446 458.277 191.938 455.077 194.892C451.877 197.969 448.246 199.569 444.184 199.692C441.6 199.692 439.385 199.2 437.538 198.215C435.569 197.108 433.969 195.815 432.738 194.338C431.508 192.615 430.646 190.769 430.154 188.8C430.031 188.431 429.908 188.062 429.785 187.692C429.169 188.677 428.492 189.723 427.754 190.831C426.892 192.185 425.846 193.477 424.615 194.708C423.385 195.815 422.092 196.8 420.738 197.662C419.384 198.4 417.908 198.769 416.308 198.769C413.6 198.769 411.2 197.908 409.108 196.185C406.892 194.338 405.046 191.877 403.569 188.8C403.2 187.938 402.831 187.077 402.461 186.215C402.338 186.462 402.277 186.646 402.277 186.769C401.538 188 400.615 189.354 399.508 190.831C398.523 192.308 397.415 193.6 396.184 194.708C394.954 195.938 393.6 196.923 392.123 197.662C390.769 198.4 389.292 198.769 387.692 198.769C385.846 198.769 384.431 198.462 383.446 197.846C382.338 197.108 381.477 196.185 380.861 195.077C380.123 193.969 379.692 192.738 379.569 191.385C379.323 190.031 379.2 188.677 379.2 187.323C379.2 186.708 379.2 186.031 379.2 185.292C379.323 184.554 379.446 183.754 379.569 182.892C379.569 182.154 379.631 181.354 379.754 180.492C379.754 179.631 379.754 178.831 379.754 178.092C379.754 176.862 379.569 176 379.2 175.508C378.831 175.138 378.461 174.954 378.092 174.954C377.477 174.954 376.8 175.323 376.061 176.062C375.2 176.677 374.338 177.6 373.477 178.831C372.615 180.062 371.692 181.415 370.708 182.892C369.846 184.246 368.984 185.662 368.123 187.138C367.384 188.615 366.646 190.031 365.908 191.385C365.292 192.615 364.8 193.662 364.431 194.523C363.569 196.246 362.769 197.415 362.031 198.031C361.169 198.523 360.369 198.769 359.631 198.769C358.523 198.769 357.6 198.462 356.861 197.846C356.123 197.108 355.754 196.123 355.754 194.892C355.754 194.646 355.815 194.092 355.938 193.231C356.061 192.369 356.185 191.446 356.308 190.462C356.431 189.231 356.492 188 356.492 186.769C356.615 185.415 356.738 184.123 356.861 182.892C356.985 181.538 357.108 180.369 357.231 179.385C357.354 178.277 357.415 177.354 357.415 176.615C357.415 175.631 357.354 174.646 357.231 173.662C357.108 172.8 356.923 172.246 356.677 172C356.431 172.123 355.815 172.862 354.831 174.215C353.969 175.569 352.861 177.969 351.508 181.415C351.384 181.415 351.323 181.415 351.323 181.415C351.323 181.538 351.323 181.6 351.323 181.6C351.2 181.969 350.892 182.585 350.4 183.446C349.908 184.431 349.292 185.538 348.554 186.769C347.815 188.123 346.892 189.477 345.785 190.831C344.8 192.308 343.692 193.6 342.461 194.708C341.231 195.938 339.877 196.923 338.4 197.662C336.923 198.4 335.385 198.769 333.785 198.769C331.569 198.769 329.661 198.092 328.061 196.738C326.461 195.262 325.354 193.415 324.738 191.2C323.384 193.415 321.785 195.2 319.938 196.554C318.092 197.908 316.246 198.585 314.4 198.585C312.923 198.585 311.631 198.277 310.523 197.662C309.292 197.169 308.246 196.431 307.385 195.446C306.646 194.462 306.031 193.354 305.538 192.123C305.292 191.631 305.169 191.138 305.169 190.646C304.308 191.877 303.446 193.169 302.584 194.523C299.384 199.323 295.384 204.8 290.584 210.954C290.584 213.415 290.584 215.877 290.584 218.338C290.584 220.8 290.584 223.508 290.584 226.462C290.584 229.415 290.523 232.308 290.4 235.138C290.277 238.092 290.031 240.862 289.661 243.446C289.292 246.031 288.8 248.431 288.184 250.646C287.692 252.862 286.954 254.831 285.969 256.554C284.984 258.154 283.815 259.385 282.461 260.246C281.108 261.231 279.508 261.723 277.661 261.723C275.077 261.723 273.046 260.677 271.569 258.585C270.215 256.615 269.538 253.785 269.538 250.092C269.538 248.123 269.661 246.031 269.908 243.815C270.4 241.477 270.954 239.077 271.569 236.615C272.308 234.154 273.169 231.692 274.154 229.231C275.138 226.769 276.246 224.369 277.477 222.031C278.708 219.692 280.061 217.415 281.538 215.2C282.892 213.108 284.431 211.138 286.154 209.292C286.154 206.585 286.154 203.877 286.154 201.169C286.154 198.462 286.215 195.938 286.338 193.6C285.108 195.077 283.692 196.246 282.092 197.108C280.492 198.092 278.892 198.585 277.292 198.585C275.938 198.585 274.646 198.277 273.415 197.662C272.308 197.169 271.384 196.431 270.646 195.446C269.908 194.462 269.292 193.354 268.8 192.123C268.677 191.508 268.554 190.892 268.431 190.277C267.077 192.123 265.723 193.662 264.369 194.892C261.169 197.969 257.538 199.569 253.477 199.692C250.892 199.692 248.677 199.2 246.831 198.215C244.985 197.108 243.446 195.815 242.215 194.338C240.985 192.615 240.061 190.769 239.446 188.8C239.323 188.431 239.2 188.062 239.077 187.692C238.954 188.062 238.831 188.369 238.708 188.615ZM213.046 157.969C213.046 160.431 213.108 162.831 213.231 165.169C213.231 167.508 213.354 169.723 213.6 171.815C215.2 168.615 216.8 165.231 218.4 161.662C219.877 158.092 221.169 154.462 222.277 150.769C223.384 147.077 224.308 143.446 225.046 139.877C225.661 136.185 225.969 132.677 225.969 129.354C225.969 124.8 225.6 121.477 224.861 119.385C224.123 117.415 223.138 116.431 221.908 116.431C221.046 116.431 220.246 116.985 219.508 118.092C218.769 119.323 218.031 120.862 217.292 122.708C216.677 124.677 216.123 127.015 215.631 129.723C215.015 132.431 214.523 135.323 214.154 138.4C213.785 141.477 213.477 144.677 213.231 148C213.108 151.323 213.046 154.646 213.046 157.969ZM243.692 187.508C244.923 187.015 246.031 186.4 247.015 185.662C248 184.8 248.861 183.938 249.6 183.077C250.338 182.092 250.892 181.108 251.261 180.123C251.631 179.015 251.815 177.908 251.815 176.8C251.815 175.692 251.569 174.831 251.077 174.215C250.461 173.6 249.723 173.292 248.861 173.292C247.877 173.292 247.015 173.6 246.277 174.215C245.538 174.831 244.923 175.569 244.431 176.431C243.938 177.415 243.569 178.462 243.323 179.569C243.077 180.8 242.954 181.969 242.954 183.077C242.954 183.815 243.015 184.554 243.138 185.292C243.385 186.031 243.569 186.769 243.692 187.508ZM286.154 216.492C284.308 219.077 282.585 221.846 280.985 224.8C279.508 227.877 278.277 230.892 277.292 233.846C276.185 236.923 275.323 239.938 274.708 242.892C274.215 245.723 273.969 248.308 273.969 250.646C273.969 252 274.092 253.108 274.338 253.969C274.584 254.831 274.892 255.508 275.261 256C275.631 256.492 276.061 256.8 276.554 256.923C276.923 257.169 277.354 257.292 277.846 257.292C278.954 257.292 280 256.8 280.985 255.815C281.846 254.831 282.584 253.538 283.2 251.938C283.815 250.215 284.369 248.308 284.861 246.215C285.231 244.123 285.477 241.969 285.6 239.754C285.846 237.415 286.031 235.138 286.154 232.923C286.154 230.708 286.154 228.677 286.154 226.831C286.154 225.108 286.154 223.385 286.154 221.662C286.154 219.938 286.154 218.215 286.154 216.492ZM404.308 175.508C405.538 172.923 406.585 170.154 407.446 167.2C408.431 164.246 409.292 161.231 410.031 158.154C410.646 155.077 411.138 152.062 411.508 149.108C411.877 146.154 412.061 143.446 412.061 140.985H405.231C404.615 143.446 404.185 146.462 403.938 150.031C403.569 153.6 403.385 157.969 403.385 163.138C403.385 165.969 403.446 168.369 403.569 170.338C403.815 172.308 404.061 174.031 404.308 175.508ZM409.846 131.569C409.477 131.569 408.923 131.938 408.184 132.677C407.569 133.415 406.954 134.831 406.338 136.923H411.877C411.754 135.2 411.446 133.908 410.954 133.046C410.708 132.062 410.338 131.569 409.846 131.569ZM434.4 187.508C435.631 187.015 436.738 186.4 437.723 185.662C438.708 184.8 439.569 183.938 440.308 183.077C441.046 182.092 441.6 181.108 441.969 180.123C442.338 179.015 442.523 177.908 442.523 176.8C442.523 175.692 442.215 174.831 441.6 174.215C440.985 173.6 440.308 173.292 439.569 173.292C438.461 173.292 437.538 173.6 436.8 174.215C436.061 174.831 435.446 175.569 434.954 176.431C434.584 177.415 434.277 178.462 434.031 179.569C433.784 180.8 433.661 181.969 433.661 183.077C433.661 183.815 433.723 184.554 433.846 185.292C433.969 186.031 434.154 186.769 434.4 187.508Z" fill="#F5B745"/>
</svg>
